<svg width="512" height="512" viewBox="0 0 512 512" fill="none" xmlns="http://www.w3.org/2000/svg">
<style>
    #line {
       fill: #eff1f5;
       stroke-width: 1;
    }
    @media (prefers-color-scheme: dark) {
        #line {
           fill: #1a1b26;
        }
    }
</style>
<path id="line" d="M153.093 75.3484C153.093 75.3484 153.037 75.9158 152.925 77.0506C152.813 78.1854 152.691 79.7274 152.56 81.6765C152.428 83.6256 152.337 85.4374 152.288 87.1119C152.238 88.7863 152.209 90.6143 152.201 92.5956C152.193 94.5769 152.258 96.3922 152.394 98.0413C152.531 99.6904 153.137 101.315 154.214 102.915C155.292 104.515 156.699 105.985 158.438 107.326C160.176 108.667 161.846 109.764 163.448 110.618C165.049 111.472 166.763 112.284 168.589 113.053C170.414 113.823 172.363 114.492 174.435 115.059C176.508 115.626 178.353 115.745 179.97 115.415C181.587 115.085 183.572 114.564 185.926 113.851C188.279 113.138 190.468 112.474 192.493 111.859C194.519 111.244 196.337 110.458 197.948 109.503C199.559 108.548 201.05 107.093 202.422 105.139C203.793 103.184 204.836 101.418 205.549 99.8388C206.263 98.2598 206.907 96.6312 207.481 94.9531C208.054 93.275 208.568 91.5402 209.021 89.7487C209.474 87.9572 209.83 86.1263 210.089 84.256C210.349 82.3857 210.563 80.5958 210.734 78.8862C210.904 77.1767 211.117 75.6237 211.372 74.2273C211.628 72.8308 211.756 72.1326 211.756 72.1326C212.114 70.4299 213.135 68.9386 214.594 67.9859C216.054 67.0332 217.832 66.6968 219.54 67.0506C221.247 67.4045 222.744 68.4196 223.702 69.8733C224.661 71.3269 225.002 73.1005 224.651 74.8048C224.651 74.8048 224.502 75.4865 224.203 76.8499C223.905 78.2134 223.626 79.8033 223.366 81.6198C223.107 83.4363 222.808 85.2609 222.468 87.0936C222.128 88.9263 221.654 90.9183 221.046 93.0697C220.438 95.221 219.792 97.287 219.107 99.2675C218.423 101.248 217.599 103.292 216.634 105.401C215.67 107.509 214.53 109.565 213.214 111.569C211.898 113.572 210.382 115.423 208.666 117.121C206.95 118.82 204.92 120.178 202.577 121.195C200.235 122.213 198.111 123.018 196.206 123.609C194.3 124.2 192.063 124.937 189.495 125.822C186.926 126.707 184.369 127.393 181.825 127.881C179.28 128.369 177.075 128.48 175.208 128.213C173.341 127.946 171.47 127.523 169.595 126.945C167.721 126.366 165.683 125.643 163.483 124.776C161.283 123.909 159.121 122.937 156.999 121.859C154.876 120.781 152.772 119.456 150.686 117.883C148.6 116.31 146.818 114.653 145.341 112.911C143.864 111.169 142.711 109.518 141.882 107.958C141.052 106.397 140.433 104.793 140.025 103.143C139.617 101.494 139.399 99.7625 139.371 97.9496C139.344 96.1367 139.368 94.2129 139.443 92.1783C139.518 90.1436 139.628 88.2186 139.771 86.4032C139.914 84.5878 140.088 82.6739 140.293 80.6617C140.497 78.6494 140.648 77.0752 140.744 75.9388C140.841 74.8025 140.889 74.2344 140.889 74.2345C141.037 72.62 141.822 71.1302 143.071 70.093C144.32 69.0557 145.931 68.556 147.549 68.7037C149.167 68.8514 150.661 69.6345 151.7 70.8806C152.74 72.1267 153.241 73.7339 153.093 75.3484ZM224.75 74.1772C224.75 74.1772 224.659 75.0468 224.477 76.786C224.295 78.5252 224.154 80.3591 224.055 82.2876C223.955 84.2162 223.863 86.2353 223.777 88.345C223.692 90.4547 223.602 92.4049 223.506 94.1955C223.411 95.9861 223.274 98.0099 223.095 100.267C222.916 102.524 222.802 104.609 222.752 106.523C222.701 108.438 223.677 110.122 225.679 111.577C227.68 113.032 229.947 114.119 232.479 114.836C235.01 115.553 237.399 116.009 239.644 116.204C241.89 116.398 244.004 116.225 245.986 115.684C247.967 115.142 249.774 114.223 251.406 112.925C253.038 111.627 254.524 110.278 255.865 108.877C257.205 107.476 258.56 106.177 259.93 104.982C261.301 103.786 262.661 102.697 264.01 101.714C265.36 100.731 266.861 99.8747 268.514 99.1447C270.167 98.4146 271.7 97.5437 273.111 96.5319C274.522 95.5202 275.835 94.251 277.048 92.7243C278.262 91.1977 279.309 89.6593 280.189 88.1092C281.07 86.5592 281.87 85.0041 282.588 83.4439C283.307 81.8838 283.774 79.7752 283.988 77.1183C284.202 74.4613 284.309 73.1329 284.309 73.1331C284.344 71.3287 285.094 69.6114 286.395 68.3578C287.696 67.1042 289.442 66.4164 291.251 66.4453C293.06 66.4742 294.783 67.2173 296.044 68.5119C297.304 69.8064 297.999 71.5467 297.975 73.3512C297.975 73.3514 297.943 74.3104 297.877 76.2283C297.812 78.1462 297.585 80.0802 297.196 82.0303C296.806 83.9803 296.214 85.8172 295.418 87.541C294.623 89.2647 293.719 91.104 292.707 93.0588C291.694 95.0136 290.722 96.6917 289.789 98.0931C288.857 99.4944 287.695 100.993 286.306 102.588C284.916 104.183 283.412 105.595 281.794 106.824C280.176 108.053 278.347 109.079 276.305 109.903C274.263 110.726 272.556 111.602 271.181 112.53C269.807 113.457 268.441 114.492 267.083 115.634C265.724 116.775 264.29 118.061 262.778 119.49C261.267 120.919 259.794 122.14 258.36 123.153C256.927 124.166 255.227 125.105 253.263 125.97C251.298 126.835 249.043 127.467 246.497 127.866C243.952 128.265 241.205 128.363 238.258 128.16C235.31 127.957 233.002 127.703 231.333 127.4C229.665 127.097 228.005 126.719 226.354 126.267C224.704 125.815 223.103 125.285 221.554 124.679C220.004 124.073 218.157 122.972 216.014 121.378C213.871 119.783 212.365 118.105 211.494 116.343C210.623 114.581 210.101 112.715 209.928 110.743C209.754 108.771 209.724 106.922 209.836 105.196C209.948 103.47 210.097 101.524 210.283 99.3591C210.469 97.1941 210.603 95.2905 210.683 93.6484C210.764 92.0063 210.816 90.1194 210.84 87.9875C210.864 85.8557 210.9 83.734 210.946 81.6226C210.993 79.5112 211.123 77.5062 211.336 75.6077C211.55 73.7092 211.656 72.76 211.657 72.7602C211.849 71.0312 212.721 69.449 214.081 68.3604C215.441 67.2719 217.178 66.7659 218.912 66.9535C220.645 67.1411 222.233 68.007 223.328 69.3611C224.422 70.7153 224.934 72.4473 224.75 74.1772ZM287.722 79.1445C287.722 79.1445 287.699 79.1321 287.654 79.1073C287.609 79.0824 287.587 79.07 287.587 79.0701C286.02 78.1631 284.878 76.673 284.412 74.9268C283.946 73.1807 284.193 71.3213 285.1 69.7568C286.006 68.1924 287.498 67.0508 289.248 66.5828C290.997 66.1147 292.861 66.3585 294.431 67.2605C294.431 67.2605 294.453 67.2737 294.497 67.3001C294.541 67.3265 294.563 67.3397 294.563 67.3398C295.34 67.7879 296.021 68.3843 296.566 69.0949C297.112 69.8056 297.513 70.6165 297.744 71.4815C297.976 72.3465 298.035 73.2485 297.917 74.1361C297.799 75.0237 297.508 75.8795 297.059 76.6546C296.609 77.4297 296.012 78.109 295.299 78.6536C294.587 79.1982 293.774 79.5975 292.907 79.8287C291.156 80.2957 289.291 80.0496 287.722 79.1445ZM297.319 75.7914C297.319 75.7914 297.038 76.4487 296.477 77.7633C295.916 79.0779 295.362 80.6668 294.816 82.5301C294.269 84.3934 293.728 86.3598 293.192 88.4292C292.655 90.4986 292.23 92.3915 291.915 94.108C291.6 95.8245 291.347 97.5109 291.157 99.1672C290.967 100.824 291.026 102.521 291.334 104.26C291.642 105.999 292.654 107.521 294.372 108.828C296.089 110.134 297.856 111.048 299.673 111.57C301.489 112.092 303.397 112.45 305.397 112.643C307.396 112.836 309.462 112.851 311.595 112.688C313.728 112.524 315.778 112.255 317.745 111.88C319.711 111.506 321.584 111.128 323.364 110.747C325.143 110.366 327.069 110.038 329.141 109.763C331.213 109.488 333.245 109.173 335.236 108.818C337.228 108.462 339.074 108.007 340.773 107.452C342.473 106.897 343.994 106.13 345.336 105.152C346.678 104.173 347.763 102.814 348.593 101.074C349.422 99.3343 349.982 97.4419 350.271 95.3966C350.561 93.3513 350.762 91.187 350.874 88.9036C350.986 86.6202 351.07 84.5522 351.128 82.6994C351.186 80.8467 351.394 79.0591 351.752 77.3369C352.111 75.6146 352.709 73.8203 353.547 71.954C354.385 70.0878 354.804 69.1547 354.804 69.1548C355.578 67.5598 356.956 66.3372 358.635 65.756C360.313 65.1747 362.154 65.2824 363.753 66.0553C365.351 66.8282 366.577 68.203 367.159 69.8773C367.742 71.5516 367.634 73.3883 366.859 74.9832C366.86 74.9833 366.415 76.1553 365.526 78.4991C364.637 80.8429 364.163 83.0439 364.103 85.1023C364.042 87.1606 363.967 89.0901 363.875 90.8906C363.784 92.6911 363.622 94.6153 363.39 96.663C363.158 98.7107 362.769 100.68 362.224 102.57C361.68 104.461 360.965 106.249 360.08 107.936C359.196 109.623 358.067 111.243 356.696 112.795C355.324 114.348 353.922 115.596 352.488 116.539C351.055 117.482 349.219 118.394 346.981 119.274C344.742 120.154 342.501 120.862 340.258 121.395C338.015 121.929 335.895 122.299 333.899 122.505C331.902 122.711 329.98 122.969 328.133 123.281C326.286 123.592 324.3 123.971 322.174 124.416C320.048 124.862 317.824 125.242 315.504 125.555C313.183 125.868 310.9 126.01 308.657 125.979C306.413 125.949 304.329 125.823 302.406 125.602C300.482 125.381 298.564 125.029 296.652 124.545C294.739 124.061 292.899 123.436 291.131 122.669C289.364 121.902 287.732 120.985 286.237 119.919C284.741 118.852 283.293 117.409 281.894 115.59C280.494 113.77 279.437 111.787 278.724 109.642C278.012 107.497 277.659 105.368 277.667 103.255C277.675 101.141 277.812 99.1705 278.079 97.3426C278.346 95.5146 278.667 93.6085 279.044 91.6243C279.421 89.64 279.847 87.542 280.322 85.3303C280.796 83.1185 281.293 80.9547 281.812 78.8388C282.331 76.7229 282.942 74.8106 283.645 73.1019C284.348 71.3932 284.699 70.539 284.699 70.5391C285.397 68.8696 286.732 67.5452 288.409 66.8572C290.086 66.1692 291.968 66.1739 293.641 66.8704C295.315 67.5669 296.642 68.8981 297.332 70.5711C298.022 72.2441 298.017 74.1219 297.319 75.7914ZM362.605 65.6248C362.605 65.6248 362.624 65.6296 362.663 65.6391C362.701 65.6486 362.72 65.6534 362.72 65.6534C364.428 66.1279 365.878 67.2584 366.753 68.7974C367.627 70.3363 367.854 72.1582 367.385 73.864C366.915 75.5698 365.787 77.0205 364.248 77.8983C362.709 78.7761 360.883 79.0095 359.172 78.5473C359.172 78.5473 359.153 78.5416 359.115 78.5303C359.077 78.5189 359.058 78.5132 359.058 78.5131C357.345 78.0439 355.889 76.9149 355.01 75.3746C354.131 73.8343 353.902 72.0087 354.372 70.2996C354.843 68.5905 355.974 67.1378 357.518 66.2611C359.062 65.3844 360.892 65.1555 362.605 65.6248ZM367.637 72.4694C367.637 72.4694 367.607 73.1293 367.546 74.449C367.485 75.7688 367.322 77.5511 367.059 79.796C366.795 82.0409 366.508 84.3634 366.198 86.7637C365.887 89.1639 365.695 91.2886 365.619 93.1376C365.544 94.9867 365.519 96.8161 365.546 98.6258C365.574 100.436 365.66 102.246 365.806 104.056C365.952 105.866 366.071 107.697 366.165 109.548C366.259 111.399 366.03 113.449 365.48 115.698C364.929 117.946 363.972 119.973 362.608 121.78C361.245 123.586 359.474 125.065 357.297 126.216C355.119 127.368 352.819 128.082 350.397 128.358C347.974 128.634 345.93 128.755 344.265 128.722C342.6 128.689 340.917 128.633 339.216 128.556C337.516 128.479 335.332 128.402 332.665 128.326C329.999 128.25 327.714 128.206 325.812 128.195C323.91 128.183 321.898 128.141 319.777 128.068C317.656 127.995 315.48 127.892 313.247 127.76C311.015 127.628 308.745 127.475 306.437 127.299C304.13 127.124 301.813 126.948 299.487 126.771C297.16 126.594 294.866 126.447 292.604 126.329C290.342 126.212 287.914 126.109 285.32 126.022C282.726 125.935 280.081 125.867 277.383 125.819C274.686 125.771 271.748 125.68 268.57 125.544C265.392 125.409 262.919 125.285 261.152 125.172C259.385 125.06 257.611 124.956 255.829 124.862C254.047 124.767 252.241 124.68 250.411 124.6C248.582 124.521 246.775 124.46 244.993 124.417C243.21 124.374 241.426 124.342 239.641 124.321C237.856 124.3 236.068 124.279 234.278 124.257C232.488 124.236 230.125 124.23 227.189 124.241C224.254 124.252 221.716 124.3 219.577 124.385C217.438 124.47 215.365 124.584 213.359 124.727C211.353 124.87 209.197 125.027 206.892 125.197C204.587 125.367 202.087 125.508 199.393 125.62C196.699 125.732 194.004 125.812 191.309 125.86C188.613 125.908 186.14 125.955 183.891 126C181.641 126.045 179.541 126.115 177.59 126.209C175.639 126.304 173.717 126.463 171.824 126.689C169.93 126.914 168.05 127.28 166.182 127.788C164.314 128.295 162.607 129.006 161.062 129.919C159.517 130.833 159.674 131.381 161.534 131.563C163.395 131.746 165.602 132.359 168.158 133.404C170.713 134.449 173.698 135.574 177.112 136.779C180.525 137.985 183.152 138.866 184.992 139.422C186.831 139.977 188.645 140.469 190.433 140.897C192.221 141.325 193.952 141.689 195.626 141.99C197.3 142.291 198.976 142.558 200.655 142.791C202.334 143.024 204.159 143.26 206.13 143.5C208.1 143.74 210.221 144.002 212.492 144.288C214.762 144.573 217.062 144.853 219.391 145.127C221.72 145.401 223.953 145.63 226.092 145.812C228.23 145.995 230.207 146.128 232.022 146.212C233.837 146.296 236.281 146.369 239.353 146.431C242.426 146.493 245.542 146.564 248.701 146.643C251.86 146.722 255.057 146.8 258.292 146.876C261.527 146.952 264.689 146.943 267.78 146.85C270.87 146.756 273.242 146.662 274.895 146.569C276.547 146.475 278.287 146.39 280.115 146.315C281.943 146.239 283.779 146.168 285.624 146.103C287.469 146.037 289.911 145.933 292.95 145.791C295.988 145.648 298.764 145.503 301.276 145.356C303.788 145.208 306.86 145.09 310.493 145.003C314.126 144.915 317.069 144.863 319.322 144.845C321.575 144.828 323.796 144.781 325.986 144.704C328.175 144.627 330.278 144.511 332.293 144.355C334.308 144.199 336.732 143.906 339.566 143.475C342.4 143.044 344.744 142.665 346.598 142.339C348.452 142.013 350.303 141.593 352.151 141.08C353.998 140.568 355.724 139.996 357.327 139.367C358.93 138.737 359.296 139.167 358.423 140.654C357.551 142.142 356.254 142.44 354.531 141.548C352.809 140.656 350.659 140.064 348.082 139.771C345.505 139.479 342.703 139.246 339.675 139.072C336.647 138.898 334.116 138.745 332.081 138.612C330.046 138.479 327.938 138.343 325.755 138.203C323.572 138.064 321.311 137.925 318.972 137.788C316.632 137.65 314.247 137.524 311.817 137.411C309.387 137.297 307.099 137.235 304.952 137.225C302.805 137.214 300.753 137.227 298.798 137.264C296.842 137.302 294.95 137.348 293.124 137.403C291.297 137.458 289.55 137.517 287.883 137.582C286.216 137.646 283.877 137.739 280.868 137.861C277.859 137.982 274.992 138.161 272.266 138.396C269.54 138.631 266.617 138.918 263.496 139.257C260.375 139.597 257.337 139.906 254.382 140.186C251.427 140.466 248.822 140.716 246.566 140.934C244.31 141.153 242.195 141.359 240.221 141.553C238.247 141.747 236.276 141.947 234.307 142.152C232.338 142.357 230.358 142.575 228.368 142.805C226.377 143.036 224.41 143.256 222.467 143.465C220.524 143.673 218.658 143.884 216.869 144.097C215.079 144.31 213.24 144.521 211.351 144.73C209.461 144.939 207.282 145.121 204.814 145.277C202.346 145.433 199.688 145.565 196.841 145.674C193.994 145.782 191.154 145.913 188.322 146.066C185.49 146.22 182.994 146.42 180.835 146.668C178.677 146.916 176.738 147.168 175.019 147.425C173.3 147.683 171.257 147.984 168.891 148.328C166.524 148.672 164.393 149.016 162.497 149.359C160.6 149.702 160.525 150.518 162.271 151.808C164.016 153.097 165.806 154.14 167.638 154.935C169.471 155.73 171.447 156.379 173.566 156.88C175.686 157.382 178.079 157.829 180.746 158.221C183.413 158.613 186.374 159.046 189.628 159.519C192.883 159.992 195.332 160.357 196.974 160.614C198.616 160.871 200.887 161.238 203.785 161.715C206.683 162.192 209.455 162.623 212.102 163.01C214.748 163.397 217.532 163.846 220.452 164.358C223.372 164.871 225.696 165.323 227.425 165.717C229.153 166.11 230.872 166.51 232.58 166.917C234.288 167.324 235.963 167.712 237.605 168.081C239.247 168.451 241.532 168.905 244.459 169.443C247.387 169.981 250.093 170.375 252.578 170.625C255.063 170.875 257.8 171.153 260.788 171.459C263.777 171.765 266.146 172.026 267.897 172.243C269.647 172.46 271.344 172.655 272.987 172.826C274.631 172.998 276.938 173.182 279.908 173.38C282.879 173.577 285.7 173.698 288.371 173.743C291.042 173.788 293.758 173.803 296.52 173.787C299.281 173.77 302.02 173.74 304.738 173.695C307.456 173.651 309.838 173.549 311.883 173.389C313.929 173.23 315.858 173.025 317.671 172.776C319.484 172.527 321.645 172.317 324.154 172.145C326.662 171.974 329.117 171.844 331.519 171.755C333.921 171.667 336.17 171.536 338.267 171.362C340.364 171.188 342.401 170.928 344.377 170.58C346.354 170.233 348.272 169.689 350.132 168.948C351.992 168.207 352.081 167.209 350.399 165.953C348.716 164.698 346.965 163.827 345.146 163.341C343.326 162.854 341.166 162.35 338.667 161.828C336.168 161.305 333.284 160.812 330.014 160.348C326.745 159.884 324.071 159.532 321.992 159.291C319.913 159.051 317.697 158.814 315.346 158.583C312.995 158.351 310.493 158.129 307.841 157.916C305.188 157.704 302.578 157.546 300.01 157.443C297.442 157.339 294.999 157.304 292.681 157.336C290.362 157.368 288.09 157.432 285.862 157.53C283.635 157.627 281.448 157.739 279.301 157.866C277.154 157.993 275.031 158.121 272.933 158.25C270.835 158.379 268.793 158.502 266.806 158.62C264.819 158.738 262.875 158.857 260.973 158.978C259.072 159.099 257.129 159.229 255.146 159.366C253.163 159.503 251.157 159.663 249.13 159.845C247.102 160.027 245.048 160.233 242.968 160.463C240.887 160.694 238.83 160.933 236.796 161.18C234.762 161.428 232.793 161.677 230.889 161.926C228.985 162.176 227.085 162.431 225.189 162.692C223.293 162.953 221.425 163.217 219.585 163.485C217.746 163.752 215.906 164.033 214.068 164.327C212.23 164.621 210.404 164.921 208.592 165.228C206.779 165.535 205.058 165.836 203.43 166.13C201.801 166.424 199.513 166.834 196.568 167.361C193.622 167.887 191.106 168.363 189.021 168.788C186.936 169.213 184.9 169.699 182.915 170.246C180.93 170.793 179.171 171.464 177.638 172.259C176.105 173.054 174.362 173.947 172.41 174.94C170.458 175.932 168.797 176.884 167.428 177.795C166.058 178.705 165.386 179.514 165.413 180.219C165.439 180.925 165.452 181.278 165.453 181.278C165.201 182.923 164.305 184.4 162.961 185.385C161.617 186.37 159.937 186.782 158.288 186.531C156.64 186.28 155.159 185.386 154.172 184.045C153.185 182.705 152.771 181.028 153.023 179.384C153.024 179.384 153.203 178.546 153.562 176.869C153.92 175.192 154.693 173.582 155.881 172.038C157.069 170.495 158.424 169.244 159.948 168.286C161.471 167.328 163.233 166.395 165.235 165.49C167.236 164.584 169.079 163.748 170.764 162.982C172.449 162.216 174.291 161.552 176.288 160.991C178.286 160.43 180.108 160.024 181.755 159.772C183.401 159.52 185.304 159.268 187.462 159.017C189.621 158.766 192.171 158.452 195.114 158.073C198.057 157.695 200.346 157.392 201.982 157.163C203.618 156.935 205.358 156.68 207.202 156.397C209.045 156.114 210.913 155.836 212.804 155.563C214.696 155.29 216.573 155.037 218.435 154.805C220.296 154.573 222.189 154.341 224.113 154.11C226.037 153.878 227.955 153.657 229.866 153.447C231.777 153.237 233.757 153.011 235.806 152.771C237.854 152.53 239.953 152.282 242.102 152.026C244.251 151.771 246.375 151.55 248.475 151.363C250.574 151.176 252.639 151.022 254.668 150.901C256.697 150.781 258.667 150.69 260.577 150.628C262.487 150.566 264.425 150.502 266.389 150.437C268.354 150.371 270.384 150.287 272.479 150.185C274.574 150.083 276.706 149.973 278.874 149.854C281.042 149.735 283.265 149.614 285.542 149.491C287.819 149.367 290.151 149.25 292.537 149.139C294.924 149.028 297.433 148.908 300.064 148.78C302.695 148.652 305.376 148.525 308.107 148.401C310.838 148.276 313.428 148.189 315.877 148.141C318.327 148.093 320.643 148.081 322.825 148.105C325.008 148.13 327.072 148.185 329.019 148.272C330.965 148.359 333.519 148.584 336.679 148.947C339.84 149.31 342.667 149.744 345.162 150.248C347.656 150.753 349.986 151.348 352.151 152.033C354.316 152.719 356.302 153.566 358.107 154.574C359.913 155.582 361.541 156.976 362.991 158.756C364.44 160.537 365.402 162.357 365.876 164.217C366.349 166.078 366.239 168.261 365.545 170.767C364.851 173.273 363.824 175.083 362.464 176.196C361.104 177.31 359.367 178.361 357.253 179.349C355.139 180.337 352.918 181.083 350.591 181.585C348.263 182.087 345.996 182.455 343.79 182.689C341.583 182.923 339.636 183.051 337.949 183.073C336.262 183.095 334.266 183.136 331.961 183.196C329.656 183.256 327.369 183.351 325.099 183.481C322.829 183.612 320.705 183.765 318.727 183.942C316.75 184.119 314.632 184.248 312.374 184.33C310.115 184.411 307.608 184.458 304.85 184.469C302.093 184.48 299.288 184.479 296.435 184.466C293.583 184.453 290.755 184.393 287.953 184.286C285.151 184.178 282.2 184.015 279.099 183.795C275.998 183.574 273.605 183.389 271.921 183.24C270.237 183.091 268.523 182.937 266.78 182.779C265.037 182.622 262.68 182.397 259.708 182.106C256.735 181.815 253.884 181.496 251.153 181.147C248.422 180.799 245.526 180.34 242.465 179.77C239.403 179.2 237.034 178.747 235.356 178.412C233.679 178.077 232.001 177.739 230.323 177.397C228.645 177.056 226.25 176.607 223.139 176.049C220.028 175.492 217.132 175.006 214.45 174.593C211.769 174.18 209.064 173.764 206.337 173.345C203.609 172.925 200.724 172.516 197.68 172.117C194.637 171.718 191.497 171.369 188.262 171.07C185.026 170.772 181.92 170.464 178.943 170.146C175.966 169.829 173.057 169.363 170.215 168.748C167.372 168.133 164.72 167.318 162.258 166.304C159.796 165.29 157.464 164.043 155.26 162.562C153.056 161.081 151.289 159.52 149.958 157.879C148.627 156.238 147.617 154.578 146.927 152.898C146.237 151.217 145.973 149.428 146.135 147.53C146.296 145.632 147.192 143.832 148.822 142.132C150.452 140.431 152.319 139.288 154.424 138.704C156.529 138.119 158.609 137.685 160.662 137.401C162.716 137.117 164.937 136.847 167.325 136.589C169.714 136.332 171.8 136.105 173.585 135.909C175.37 135.712 177.425 135.499 179.749 135.27C182.074 135.041 184.687 134.816 187.588 134.594C190.489 134.372 193.357 134.164 196.191 133.972C199.026 133.78 201.595 133.601 203.899 133.437C206.202 133.272 208.295 133.104 210.177 132.933C212.058 132.762 213.906 132.598 215.72 132.441C217.534 132.283 219.413 132.129 221.358 131.978C223.302 131.827 225.281 131.67 227.294 131.507C229.307 131.345 231.348 131.199 233.418 131.071C235.488 130.943 237.503 130.84 239.463 130.761C241.423 130.682 243.537 130.593 245.805 130.495C248.074 130.396 250.632 130.246 253.482 130.044C256.331 129.842 259.359 129.583 262.567 129.269C265.775 128.954 268.842 128.734 271.769 128.61C274.696 128.486 277.665 128.433 280.677 128.452C283.69 128.471 286.029 128.479 287.694 128.477C289.36 128.474 291.109 128.461 292.943 128.439C294.777 128.416 296.682 128.386 298.657 128.35C300.633 128.313 302.713 128.262 304.896 128.197C307.08 128.133 309.399 128.044 311.853 127.931C314.307 127.818 316.715 127.709 319.078 127.605C321.441 127.501 323.718 127.408 325.909 127.328C328.1 127.247 330.22 127.171 332.27 127.097C334.321 127.024 336.966 126.982 340.208 126.971C343.449 126.96 346.239 127.056 348.577 127.26C350.916 127.463 352.993 127.771 354.81 128.183C356.626 128.594 358.497 129.35 360.422 130.45C362.347 131.55 363.977 132.908 365.313 134.523C366.649 136.138 367.585 137.787 368.121 139.469C368.658 141.151 368.396 143.023 367.335 145.085C366.275 147.148 364.723 148.547 362.68 149.285C360.637 150.022 358.749 150.582 357.018 150.965C355.287 151.349 353.384 151.62 351.31 151.779C349.236 151.939 347.008 152.125 344.624 152.338C342.241 152.552 340.226 152.733 338.579 152.884C336.932 153.034 335.063 153.212 332.973 153.417C330.882 153.622 328.719 153.823 326.484 154.019C324.248 154.215 322.004 154.406 319.753 154.591C317.501 154.776 314.549 154.977 310.897 155.193C307.245 155.408 304.154 155.531 301.625 155.562C299.095 155.592 296.328 155.638 293.325 155.699C290.322 155.76 287.908 155.838 286.084 155.933C284.26 156.028 282.446 156.127 280.642 156.231C278.838 156.335 277.087 156.434 275.391 156.529C273.695 156.624 271.193 156.695 267.886 156.744C264.579 156.793 261.272 156.753 257.964 156.626C254.656 156.499 251.431 156.347 248.289 156.169C245.147 155.992 242.019 155.791 238.904 155.568C235.788 155.345 233.305 155.169 231.453 155.042C229.602 154.915 227.587 154.79 225.408 154.667C223.229 154.544 220.965 154.426 218.616 154.312C216.266 154.199 213.937 154.09 211.627 153.986C209.317 153.882 207.116 153.763 205.022 153.627C202.927 153.492 200.975 153.323 199.165 153.12C197.355 152.916 195.536 152.682 193.707 152.415C191.878 152.149 189.971 151.844 187.986 151.5C186.001 151.157 184.009 150.775 182.011 150.354C180.012 149.932 178.007 149.49 175.995 149.026C173.982 148.563 172.1 148.099 170.347 147.636C168.594 147.173 166.604 146.538 164.377 145.73C162.151 144.922 160.268 144.162 158.73 143.45C157.192 142.738 155.548 141.837 153.8 140.746C152.051 139.656 150.415 138.016 148.89 135.827C147.366 133.637 146.733 131.38 146.993 129.054C147.252 126.728 148.126 124.723 149.613 123.039C151.101 121.355 152.663 120.058 154.3 119.147C155.937 118.237 157.574 117.531 159.214 117.029C160.853 116.528 162.647 116.107 164.597 115.766C166.547 115.426 168.623 115.186 170.825 115.045C173.027 114.904 175.176 114.815 177.27 114.778C179.365 114.741 181.529 114.726 183.763 114.733C185.997 114.74 188.422 114.724 191.036 114.683C193.651 114.643 196.262 114.572 198.869 114.469C201.476 114.367 203.945 114.26 206.276 114.149C208.607 114.039 210.844 113.963 212.986 113.922C215.129 113.88 217.309 113.882 219.526 113.928C221.744 113.973 224.314 114.023 227.236 114.077C230.159 114.132 232.509 114.153 234.286 114.142C236.064 114.13 237.86 114.112 239.676 114.086C241.492 114.061 243.315 114.041 245.143 114.028C246.972 114.014 248.817 114.006 250.679 114.003C252.54 114 254.38 114.004 256.198 114.015C258.015 114.026 259.799 114.042 261.549 114.064C263.298 114.086 265.711 114.104 268.787 114.12C271.863 114.135 274.771 114.139 277.513 114.13C280.255 114.122 282.98 114.133 285.689 114.164C288.398 114.194 290.913 114.263 293.232 114.369C295.551 114.476 297.911 114.605 300.313 114.757C302.714 114.909 305.026 115.057 307.25 115.203C309.473 115.348 311.67 115.476 313.841 115.587C316.012 115.698 318.103 115.785 320.115 115.847C322.126 115.909 324.069 115.953 325.942 115.98C327.815 116.006 330.078 116.004 332.731 115.973C335.384 115.943 338.23 115.851 341.27 115.697C344.311 115.543 346.76 115.316 348.617 115.016C350.475 114.715 351.634 113.664 352.094 111.861C352.553 110.059 352.71 108.202 352.563 106.291C352.416 104.381 352.324 102.347 352.286 100.191C352.249 98.0352 352.26 96.0987 352.318 94.3818C352.377 92.6649 352.465 90.9093 352.582 89.1148C352.7 87.3203 352.864 85.5701 353.074 83.8642C353.284 82.1583 353.493 80.3379 353.7 78.4029C353.907 76.468 354.051 74.8722 354.132 73.6155C354.213 72.3589 354.254 71.7308 354.255 71.7312C354.357 69.9637 355.158 68.3087 356.481 67.1294C357.805 65.95 359.543 65.3426 361.315 65.4403C363.087 65.5381 364.748 66.333 365.933 67.6508C367.118 68.9685 367.731 70.7014 367.637 72.4694Z" />
<path id="line" d="M162.745 175.898C162.745 175.898 163.238 176.284 164.225 177.056C165.211 177.827 166.503 178.613 168.102 179.413C169.7 180.213 171.479 180.889 173.438 181.44C175.397 181.991 177.532 182.508 179.843 182.992C182.155 183.476 184.777 183.996 187.709 184.551C190.642 185.107 193.726 185.708 196.963 186.354C200.199 187 202.649 187.47 204.312 187.765C205.975 188.06 207.68 188.346 209.426 188.624C211.172 188.902 212.937 189.175 214.721 189.445C216.506 189.715 219.022 190.044 222.272 190.433C225.521 190.821 228.116 191.14 230.057 191.388C231.998 191.637 233.896 191.872 235.752 192.095C237.608 192.319 239.539 192.557 241.544 192.812C243.549 193.066 245.629 193.323 247.785 193.582C249.942 193.842 252.047 194.064 254.103 194.249C256.158 194.433 258.144 194.58 260.061 194.69C261.979 194.799 263.905 194.881 265.841 194.935C267.776 194.99 269.775 195.036 271.838 195.073C273.9 195.111 276.09 195.158 278.407 195.215C280.724 195.272 283.029 195.301 285.321 195.303C287.614 195.304 289.731 195.251 291.674 195.144C293.617 195.038 295.414 194.899 297.065 194.727C298.717 194.556 300.848 194.232 303.461 193.755C306.073 193.278 308.53 192.696 310.832 192.009C313.135 191.322 315.055 190.601 316.594 189.847C318.133 189.093 319.805 188.136 321.61 186.978C323.414 185.819 325.18 184.772 326.905 183.836C328.631 182.901 330.698 182.154 333.108 181.595C335.517 181.036 337.757 180.645 339.827 180.419C341.896 180.194 344.247 179.68 346.878 178.875C349.508 178.071 350.824 177.669 350.824 177.669C352.406 177.079 354.157 177.14 355.693 177.838C357.23 178.536 358.426 179.814 359.019 181.391C359.612 182.967 359.554 184.715 358.857 186.249C358.16 187.783 356.881 188.978 355.302 189.572C355.302 189.572 354.318 189.882 352.35 190.501C350.382 191.12 348.502 191.546 346.709 191.779C344.917 192.012 343.039 192.188 341.075 192.308C339.111 192.428 337.249 192.636 335.489 192.931C333.728 193.227 332.038 193.766 330.417 194.548C328.796 195.33 327.21 196.119 325.658 196.914C324.107 197.709 322.297 198.493 320.23 199.266C318.163 200.04 315.76 200.732 313.021 201.343C310.282 201.953 307.461 202.405 304.557 202.698C301.654 202.991 299.33 203.18 297.586 203.266C295.841 203.352 293.958 203.431 291.937 203.503C289.915 203.575 287.734 203.652 285.393 203.734C283.051 203.815 280.71 203.884 278.369 203.94C276.027 203.996 273.801 204.026 271.689 204.028C269.577 204.031 267.506 204.01 265.477 203.967C263.448 203.924 261.445 203.849 259.467 203.742C257.489 203.635 255.442 203.517 253.328 203.388C251.214 203.258 249.051 203.12 246.84 202.972C244.629 202.825 242.514 202.663 240.495 202.487C238.476 202.31 236.54 202.132 234.689 201.952C232.837 201.772 230.933 201.599 228.978 201.434C227.023 201.27 224.374 201.002 221.033 200.631C217.692 200.26 215.117 199.968 213.306 199.757C211.496 199.545 209.68 199.33 207.857 199.111C206.034 198.892 204.247 198.659 202.496 198.413C200.744 198.167 198.245 197.778 194.999 197.246C191.752 196.714 188.636 196.206 185.649 195.724C182.662 195.241 179.879 194.729 177.3 194.187C174.721 193.645 172.138 192.975 169.553 192.178C166.968 191.382 164.512 190.333 162.186 189.033C159.86 187.732 158.205 186.692 157.221 185.912C156.237 185.132 155.745 184.741 155.745 184.741C154.573 183.814 153.818 182.461 153.645 180.979C153.472 179.496 153.895 178.006 154.822 176.835C155.749 175.664 157.104 174.908 158.589 174.732C160.075 174.556 161.569 174.976 162.745 175.898ZM350.378 189.386C350.378 189.386 349.426 188.937 347.523 188.039C345.619 187.141 343.901 186.386 342.367 185.772C340.833 185.159 339.189 184.53 337.435 183.886C335.681 183.242 333.382 182.556 330.539 181.83C327.697 181.104 325.12 180.681 322.811 180.559C320.501 180.438 317.953 180.6 315.167 181.045C312.38 181.49 310.144 181.937 308.46 182.387C306.775 182.837 305.08 183.318 303.375 183.831C301.67 184.344 299.948 184.85 298.209 185.348C296.471 185.847 294.677 186.318 292.829 186.762C290.981 187.206 289.076 187.625 287.113 188.018C285.15 188.411 283.05 188.766 280.813 189.084C278.577 189.402 276.221 189.678 273.748 189.911C271.274 190.145 268.785 190.362 266.28 190.564C263.775 190.765 261.227 190.971 258.635 191.179C256.043 191.388 253.448 191.628 250.852 191.901C248.256 192.173 245.674 192.487 243.107 192.843C240.541 193.199 238.067 193.589 235.687 194.011C233.307 194.433 231.066 194.864 228.963 195.303C226.861 195.742 224.904 196.171 223.095 196.59C221.285 197.01 218.947 197.618 216.08 198.415C213.214 199.212 210.642 200.035 208.366 200.884C206.09 201.732 203.956 202.564 201.963 203.38C199.97 204.196 197.997 205.057 196.043 205.965C194.09 206.872 192.403 207.772 190.983 208.663C189.563 209.555 189.79 209.813 191.663 209.437C193.535 209.061 195.329 209.138 197.042 209.669C198.756 210.199 200.535 210.691 202.377 211.144C204.22 211.596 206.372 212.043 208.833 212.482C211.294 212.922 214.108 213.389 217.276 213.884C220.444 214.378 222.872 214.738 224.561 214.962C226.249 215.186 227.978 215.407 229.748 215.626C231.518 215.844 233.276 216.05 235.022 216.244C236.768 216.437 238.533 216.645 240.317 216.867C242.102 217.089 243.865 217.319 245.606 217.555C247.347 217.792 249.566 218.016 252.262 218.229C254.958 218.442 257.426 218.529 259.666 218.49C261.906 218.451 264.25 218.335 266.699 218.143C269.149 217.95 271.373 217.702 273.374 217.398C275.374 217.095 277.349 216.785 279.298 216.469C281.248 216.152 283.328 215.865 285.538 215.607C287.748 215.349 289.724 215.125 291.466 214.937C293.208 214.749 294.902 214.551 296.549 214.344C298.195 214.137 299.915 213.925 301.711 213.707C303.506 213.49 305.253 213.26 306.95 213.018C308.648 212.777 310.35 212.384 312.057 211.84C313.765 211.296 315.675 210.711 317.789 210.085C319.902 209.459 321.709 210.114 323.21 212.05C324.711 213.986 324.472 214.652 322.492 214.048C320.512 213.445 318.068 212.694 315.16 211.796C312.251 210.899 309.529 210.201 306.993 209.705C304.457 209.208 302.171 208.907 300.135 208.801C298.099 208.695 296.171 208.721 294.352 208.88C292.533 209.039 290.529 209.273 288.341 209.582C286.152 209.892 283.479 210.3 280.323 210.807C277.166 211.314 274.502 211.733 272.33 212.063C270.158 212.393 267.853 212.747 265.414 213.126C262.976 213.504 260.484 213.909 257.939 214.34C255.395 214.772 252.815 215.228 250.202 215.71C247.588 216.192 245.022 216.692 242.503 217.208C239.984 217.725 237.525 218.25 235.124 218.783C232.724 219.316 230.326 219.854 227.932 220.395C225.538 220.937 223.217 221.474 220.968 222.006C218.719 222.537 216.605 223.058 214.625 223.567C212.645 224.076 210.785 224.579 209.045 225.077C207.304 225.576 205.038 226.318 202.246 227.305C199.454 228.293 197.189 229.186 195.45 229.986C193.71 230.787 192.062 231.629 190.504 232.513C188.947 233.397 187.399 234.302 185.862 235.227C184.325 236.152 184.625 236.92 186.761 237.53C188.898 238.141 190.741 238.854 192.292 239.671C193.843 240.487 195.473 241.318 197.185 242.164C198.896 243.009 200.553 243.763 202.155 244.426C203.758 245.089 205.675 245.711 207.907 246.293C210.14 246.875 212.11 247.328 213.819 247.652C215.527 247.976 217.298 248.271 219.132 248.536C220.966 248.8 223.133 249.052 225.632 249.292C228.13 249.531 230.964 249.787 234.133 250.059C237.302 250.331 240.456 250.471 243.596 250.48C246.736 250.488 249.945 250.404 253.223 250.228C256.501 250.051 259.005 249.91 260.734 249.805C262.464 249.701 264.18 249.579 265.883 249.44C267.585 249.301 269.254 249.13 270.89 248.928C272.526 248.725 274.815 248.316 277.758 247.699C280.7 247.083 283.483 246.378 286.106 245.583C288.729 244.789 291.16 244.031 293.396 243.31C295.633 242.589 297.773 241.962 299.815 241.43C301.858 240.897 303.715 240.41 305.386 239.968C307.058 239.526 308.918 239.03 310.966 238.479C313.015 237.928 315.118 237.433 317.274 236.993C319.43 236.553 321.386 235.969 323.143 235.241C324.899 234.513 324.96 234.473 323.327 235.12C321.694 235.768 319.734 236.157 317.449 236.286C315.164 236.416 312.752 236.588 310.213 236.804C307.675 237.02 305.119 237.242 302.547 237.469C299.974 237.696 297.215 237.933 294.269 238.181C291.323 238.429 288.996 238.625 287.288 238.771C285.581 238.917 283.855 239.075 282.112 239.245C280.368 239.415 278.629 239.614 276.895 239.842C275.161 240.069 273.405 240.328 271.628 240.617C269.851 240.907 268.037 241.213 266.187 241.534C264.337 241.855 262.457 242.179 260.547 242.505C258.637 242.831 256.77 243.154 254.946 243.475C253.121 243.797 251.336 244.132 249.59 244.483C247.843 244.834 246.052 245.221 244.217 245.646C242.382 246.071 240.529 246.52 238.657 246.994C236.786 247.469 234.976 247.944 233.229 248.42C231.482 248.897 229.244 249.59 226.514 250.499C223.784 251.408 221.666 252.208 220.16 252.898C218.653 253.588 216.959 254.482 215.075 255.58C213.192 256.678 211.453 257.708 209.859 258.671C208.266 259.634 206.59 260.671 204.833 261.783C203.076 262.895 201.344 263.944 199.639 264.931C197.933 265.918 196.541 267.07 195.462 268.388C194.383 269.706 194.643 270.847 196.242 271.811C197.841 272.775 199.862 273.544 202.305 274.118C204.749 274.692 206.933 275.117 208.857 275.392C210.781 275.668 213.039 276.034 215.631 276.492C218.222 276.949 220.925 277.42 223.738 277.904C226.551 278.389 229.343 278.852 232.114 279.295C234.884 279.738 237.614 280.14 240.303 280.502C242.992 280.864 245.54 281.152 247.947 281.365C250.353 281.579 252.606 281.728 254.705 281.812C256.804 281.896 258.796 281.946 260.679 281.961C262.562 281.976 264.415 281.984 266.239 281.986C268.062 281.987 269.942 282.001 271.878 282.028C273.814 282.055 275.774 282.084 277.758 282.116C279.742 282.147 281.694 282.167 283.616 282.175C285.537 282.182 287.382 282.171 289.152 282.141C290.921 282.111 293.192 281.983 295.965 281.758C298.738 281.534 301.303 281.245 303.659 280.892C306.016 280.539 308.129 280.142 309.999 279.7C311.869 279.259 313.797 278.7 315.783 278.025C317.769 277.35 319.515 276.682 321.02 276.019C322.526 275.357 324.097 274.596 325.731 273.737C327.366 272.878 327.67 271.583 326.642 269.853C325.615 268.123 324.193 267.007 322.377 266.503C320.561 266 318.289 265.671 315.559 265.515C312.83 265.36 310.577 265.279 308.801 265.273C307.025 265.266 305.111 265.295 303.06 265.36C301.009 265.425 298.847 265.521 296.576 265.648C294.304 265.775 291.945 265.926 289.5 266.102C287.055 266.277 284.562 266.475 282.02 266.697C279.478 266.918 276.866 267.165 274.184 267.435C271.502 267.706 268.725 268.025 265.852 268.392C262.98 268.76 260.124 269.146 257.285 269.55C254.446 269.955 251.655 270.351 248.912 270.739C246.169 271.128 243.49 271.518 240.875 271.91C238.259 272.302 235.776 272.719 233.423 273.161C231.07 273.604 228.813 274.054 226.65 274.512C224.487 274.97 222.44 275.429 220.508 275.888C218.577 276.347 216.74 276.805 214.998 277.262C213.256 277.718 211.564 278.175 209.921 278.632C208.278 279.089 206.091 279.756 203.36 280.632C200.629 281.509 198.005 282.358 195.488 283.178C192.971 283.998 190.537 284.789 188.187 285.549C185.836 286.31 183.821 286.992 182.143 287.597C180.464 288.201 178.888 288.898 177.413 289.688C175.939 290.477 176.223 290.748 178.266 290.5C180.309 290.252 182.545 290.746 184.975 291.98C187.405 293.215 190.039 294.483 192.88 295.786C195.72 297.088 198.064 298.127 199.912 298.904C201.76 299.68 203.722 300.451 205.798 301.216C207.874 301.981 210.007 302.703 212.199 303.381C214.391 304.059 216.422 304.609 218.295 305.032C220.167 305.455 222.646 305.874 225.734 306.289C228.821 306.705 231.197 306.972 232.862 307.089C234.527 307.207 236.36 307.321 238.359 307.432C240.358 307.543 242.402 307.626 244.489 307.68C246.576 307.734 248.581 307.732 250.503 307.676C252.425 307.62 254.222 307.521 255.895 307.378C257.567 307.235 259.695 306.962 262.276 306.558C264.858 306.154 267.495 305.636 270.185 305.003C272.876 304.37 275.416 303.676 277.807 302.919C280.197 302.163 282.778 301.357 285.551 300.502C288.323 299.646 291.298 298.807 294.476 297.983C297.653 297.159 300.047 296.572 301.659 296.222C303.27 295.871 305.436 295.381 308.156 294.751C310.876 294.121 313.272 293.487 315.345 292.85C317.417 292.214 319.423 291.56 321.362 290.889C323.301 290.217 325.305 289.568 327.375 288.941C329.444 288.313 331.354 287.687 333.104 287.061C334.854 286.436 335.903 287.093 336.252 289.031C336.601 290.969 335.786 291.762 333.807 291.41C331.828 291.058 329.605 290.738 327.138 290.449C324.671 290.161 322.062 289.901 319.31 289.671C316.559 289.441 313.749 289.254 310.88 289.111C308.011 288.967 305.254 288.93 302.606 288.998C299.959 289.066 297.261 289.243 294.51 289.527C291.759 289.811 289.045 290.129 286.367 290.481C283.69 290.833 281.017 291.253 278.349 291.742C275.681 292.231 272.703 292.848 269.413 293.594C266.123 294.34 263.603 294.943 261.852 295.402C260.1 295.862 258.346 296.346 256.59 296.854C254.833 297.363 253.102 297.883 251.397 298.413C249.691 298.944 247.992 299.476 246.298 300.011C244.604 300.546 242.875 301.088 241.113 301.635C239.35 302.183 237.621 302.731 235.928 303.28C234.235 303.829 232.571 304.379 230.937 304.929C229.302 305.479 227.694 306.006 226.114 306.511C224.533 307.016 222.372 307.658 219.631 308.436C216.891 309.215 214.569 309.865 212.665 310.387C210.762 310.909 208.841 311.447 206.901 312.002C204.962 312.556 203.094 313.096 201.296 313.621C199.498 314.146 197.817 314.667 196.252 315.185C194.688 315.702 192.969 316.259 191.095 316.854C189.22 317.449 187.514 318.068 185.975 318.713C184.436 319.358 185.185 319.956 188.222 320.508C191.259 321.06 193.705 321.643 195.559 322.256C197.413 322.869 199.225 323.425 200.996 323.925C202.767 324.425 204.46 324.857 206.074 325.221C207.688 325.584 209.882 325.951 212.656 326.319C215.43 326.687 218.351 326.994 221.417 327.24C224.484 327.486 226.856 327.672 228.533 327.799C230.211 327.925 232.649 328.085 235.848 328.278C239.048 328.472 242.11 328.644 245.036 328.794C247.962 328.945 250.913 329.076 253.888 329.188C256.864 329.301 259.86 329.256 262.877 329.053C265.893 328.851 268.816 328.538 271.644 328.113C274.472 327.689 277.023 327.22 279.298 326.706C281.572 326.191 283.52 325.698 285.142 325.226C286.763 324.754 288.485 324.233 290.305 323.663C292.126 323.094 293.911 322.559 295.658 322.058C297.406 321.558 299.121 321.146 300.803 320.823C302.485 320.5 304.451 320.187 306.701 319.883C308.952 319.58 310.077 319.428 310.077 319.428C310.86 319.319 311.657 319.365 312.422 319.563C313.187 319.761 313.905 320.108 314.536 320.583C315.167 321.058 315.698 321.653 316.098 322.333C316.499 323.012 316.761 323.764 316.87 324.545C316.98 325.327 316.934 326.121 316.735 326.885C316.536 327.648 316.189 328.365 315.712 328.994C315.236 329.623 314.64 330.153 313.958 330.553C313.277 330.952 312.523 331.214 311.74 331.323C311.74 331.322 311.112 331.417 309.855 331.607C308.598 331.797 306.816 332.059 304.511 332.391C302.206 332.724 300.221 333.07 298.557 333.431C296.893 333.793 295.124 334.189 293.25 334.62C291.377 335.051 289.542 335.466 287.745 335.864C285.949 336.262 283.802 336.696 281.303 337.164C278.805 337.633 276.04 338.08 273.009 338.506C269.977 338.932 267.591 339.237 265.85 339.42C264.11 339.603 261.591 339.714 258.294 339.75C254.997 339.787 251.872 339.717 248.921 339.54C245.97 339.363 242.974 339.19 239.933 339.021C236.892 338.852 234.54 338.727 232.877 338.645C231.214 338.564 229.533 338.48 227.835 338.394C226.136 338.308 223.683 338.157 220.475 337.942C217.267 337.727 214.105 337.416 210.99 337.01C207.874 336.604 205.437 336.239 203.677 335.914C201.917 335.59 200.081 335.231 198.168 334.84C196.255 334.448 194.296 334.032 192.291 333.589C190.287 333.147 188.318 332.689 186.385 332.213C184.452 331.738 181.974 330.931 178.949 329.793C175.925 328.656 173.645 327.407 172.11 326.048C170.575 324.689 169.634 322.856 169.285 320.549C168.936 318.242 169.219 316.243 170.134 314.553C171.048 312.862 172.218 311.576 173.645 310.694C175.071 309.813 176.633 309.01 178.331 308.287C180.029 307.563 181.736 306.935 183.454 306.403C185.172 305.871 187.055 305.348 189.102 304.836C191.149 304.323 193.067 303.845 194.856 303.401C196.645 302.957 198.514 302.542 200.463 302.155C202.412 301.768 204.477 301.362 206.658 300.937C208.838 300.512 211.06 300.062 213.321 299.588C215.582 299.114 218.15 298.471 221.023 297.659C223.896 296.847 226.159 296.162 227.81 295.605C229.462 295.048 231.143 294.481 232.855 293.904C234.567 293.328 236.294 292.749 238.037 292.168C239.78 291.587 241.496 291.015 243.183 290.452C244.871 289.889 246.58 289.316 248.311 288.734C250.041 288.152 251.812 287.56 253.625 286.959C255.437 286.358 257.246 285.779 259.051 285.221C260.857 284.664 262.66 284.126 264.46 283.607C266.261 283.088 267.99 282.62 269.646 282.203C271.302 281.786 273.579 281.301 276.477 280.748C279.376 280.196 282.184 279.737 284.901 279.371C287.619 279.005 290.476 278.644 293.474 278.288C296.471 277.932 299.448 277.693 302.404 277.572C305.36 277.451 308.35 277.417 311.373 277.47C314.395 277.523 317.337 277.62 320.196 277.76C323.056 277.9 325.866 278.088 328.625 278.324C331.385 278.559 334.039 278.929 336.588 279.433C339.138 279.936 341.409 280.896 343.402 282.313C345.396 283.729 346.549 285.283 346.861 286.974C347.174 288.665 346.943 290.311 346.168 291.91C345.394 293.509 344.291 294.747 342.859 295.622C341.428 296.497 339.869 297.177 338.182 297.663C336.495 298.149 334.805 298.606 333.112 299.034C331.419 299.462 329.625 299.947 327.732 300.488C325.838 301.029 323.777 301.621 321.549 302.265C319.32 302.908 316.949 303.515 314.434 304.085C311.919 304.656 309.179 305.261 306.214 305.902C303.249 306.543 300.263 307.262 297.256 308.059C294.249 308.856 291.35 309.666 288.56 310.488C285.771 311.311 283.072 312.071 280.465 312.769C277.858 313.467 275.056 314.11 272.061 314.698C269.065 315.286 266.15 315.707 263.318 315.962C260.485 316.217 258.173 316.398 256.38 316.505C254.587 316.612 252.67 316.704 250.627 316.78C248.585 316.857 246.47 316.908 244.282 316.936C242.095 316.964 239.942 316.955 237.823 316.91C235.704 316.865 233.728 316.771 231.894 316.629C230.06 316.487 228.316 316.296 226.662 316.058C225.008 315.82 223.34 315.542 221.657 315.225C219.974 314.907 218.129 314.541 216.122 314.125C214.114 313.709 211.912 313.244 209.516 312.731C207.119 312.218 204.762 311.662 202.443 311.064C200.125 310.465 197.94 309.839 195.889 309.187C193.838 308.535 191.952 307.885 190.232 307.24C188.512 306.594 186.282 305.67 183.543 304.467C180.803 303.265 178.285 302.083 175.987 300.923C173.689 299.762 171.545 298.349 169.554 296.683C167.563 295.017 166.303 293.377 165.773 291.762C165.243 290.147 165.262 288.386 165.83 286.476C166.399 284.567 167.407 283.069 168.854 281.982C170.3 280.894 171.913 280.039 173.692 279.416C175.471 278.792 177.272 278.239 179.096 277.757C180.92 277.275 183.049 276.728 185.482 276.115C187.915 275.502 190.413 274.887 192.975 274.269C195.538 273.651 198.275 273.013 201.185 272.354C204.096 271.696 206.408 271.194 208.12 270.851C209.832 270.507 211.595 270.17 213.407 269.838C215.22 269.506 217.119 269.169 219.106 268.827C221.092 268.486 223.188 268.128 225.394 267.753C227.599 267.378 229.899 266.988 232.294 266.58C234.688 266.173 237.193 265.74 239.807 265.283C242.421 264.826 245.085 264.359 247.799 263.883C250.514 263.407 253.289 262.904 256.125 262.375C258.96 261.846 261.819 261.311 264.702 260.772C267.584 260.232 270.361 259.714 273.031 259.216C275.702 258.719 278.307 258.236 280.845 257.766C283.383 257.297 285.882 256.84 288.341 256.396C290.8 255.952 293.198 255.535 295.535 255.145C297.871 254.756 300.143 254.41 302.348 254.108C304.554 253.807 306.629 253.576 308.572 253.417C310.514 253.257 313.146 253.179 316.467 253.183C319.788 253.187 322.698 253.476 325.196 254.049C327.693 254.623 329.875 255.545 331.741 256.814C333.608 258.084 335.183 259.597 336.469 261.354C337.754 263.112 338.733 265.064 339.407 267.212C340.081 269.36 340.341 271.295 340.187 273.017C340.033 274.74 339.414 276.488 338.332 278.263C337.25 280.037 335.799 281.512 333.977 282.687C332.155 283.863 330.335 284.78 328.515 285.438C326.695 286.097 324.88 286.706 323.069 287.264C321.259 287.823 319.447 288.294 317.635 288.678C315.822 289.062 313.848 289.415 311.712 289.738C309.576 290.061 307.208 290.322 304.608 290.521C302.008 290.72 299.225 290.837 296.259 290.872C293.293 290.907 290.906 290.91 289.098 290.881C287.29 290.852 285.413 290.817 283.467 290.775C281.52 290.733 279.549 290.685 277.552 290.63C275.556 290.575 273.592 290.51 271.662 290.436C269.732 290.361 267.846 290.279 266.004 290.19C264.162 290.1 262.277 290.002 260.348 289.894C258.42 289.785 256.379 289.665 254.226 289.533C252.072 289.401 249.763 289.264 247.297 289.122C244.831 288.98 242.224 288.835 239.476 288.689C236.729 288.542 233.958 288.393 231.164 288.24C228.371 288.088 225.572 287.961 222.768 287.859C219.964 287.757 217.261 287.7 214.658 287.688C212.055 287.676 209.717 287.642 207.642 287.585C205.568 287.529 203.036 287.246 200.046 286.738C197.056 286.229 194.459 285.418 192.255 284.306C190.052 283.194 188.145 281.939 186.536 280.541C184.927 279.143 183.671 277.703 182.769 276.221C181.867 274.739 181.342 273.181 181.194 271.546C181.046 269.911 181.232 268.241 181.752 266.537C182.273 264.833 183.064 263.237 184.127 261.749C185.19 260.262 186.627 258.86 188.438 257.544C190.249 256.227 191.969 255.161 193.598 254.345C195.228 253.529 196.771 252.725 198.23 251.931C199.689 251.136 201.187 250.355 202.725 249.586C204.262 248.818 205.894 247.996 207.619 247.123C209.345 246.249 211.214 245.43 213.227 244.666C215.24 243.901 217.404 243.156 219.72 242.429C222.035 241.702 224.008 241.108 225.638 240.646C227.268 240.184 228.965 239.711 230.731 239.226C232.496 238.74 234.338 238.229 236.258 237.69C238.178 237.152 240.107 236.63 242.044 236.125C243.982 235.62 245.853 235.173 247.659 234.783C249.465 234.393 251.27 234.018 253.072 233.658C254.875 233.298 256.716 232.917 258.595 232.516C260.473 232.115 262.343 231.709 264.205 231.299C266.066 230.889 267.931 230.485 269.798 230.088C271.665 229.69 273.514 229.323 275.345 228.988C277.176 228.653 278.976 228.347 280.743 228.073C282.511 227.798 284.263 227.531 285.999 227.274C287.736 227.016 290.071 226.7 293.006 226.325C295.941 225.95 298.694 225.607 301.264 225.297C303.835 224.986 306.404 224.671 308.972 224.35C311.539 224.03 314.196 223.735 316.943 223.466C319.69 223.197 322.175 223.154 324.396 223.335C326.617 223.516 328.572 223.981 330.26 224.731C331.948 225.48 333.46 226.608 334.796 228.114C336.132 229.621 336.971 231.519 337.311 233.809C337.652 236.1 337.429 238.114 336.642 239.852C335.855 241.59 334.607 243.027 332.899 244.164C331.191 245.301 329.536 246.173 327.936 246.778C326.336 247.383 324.723 247.82 323.096 248.089C321.47 248.357 319.67 248.657 317.697 248.988C315.723 249.318 313.629 249.721 311.414 250.194C309.199 250.668 307.165 251.091 305.312 251.462C303.459 251.833 301.55 252.25 299.586 252.712C297.623 253.175 295.379 253.778 292.856 254.523C290.332 255.267 287.535 256.022 284.466 256.787C281.396 257.552 279.005 258.095 277.294 258.416C275.583 258.737 273.847 259.024 272.085 259.276C270.323 259.528 268.56 259.751 266.797 259.945C265.034 260.139 263.289 260.318 261.563 260.48C259.837 260.643 258.128 260.803 256.436 260.96C254.745 261.117 253.034 261.269 251.304 261.414C249.574 261.56 247.86 261.679 246.161 261.771C244.462 261.864 242.742 261.932 241.001 261.975C239.26 262.019 237.522 262.029 235.787 262.005C234.052 261.981 231.698 261.9 228.724 261.761C225.751 261.622 223.065 261.44 220.667 261.215C218.269 260.989 216.11 260.712 214.189 260.383C212.269 260.053 210.381 259.687 208.526 259.285C206.67 258.882 204.786 258.394 202.873 257.819C200.959 257.245 199.067 256.566 197.195 255.783C195.324 255 193.466 254.158 191.623 253.256C189.78 252.354 187.716 251.294 185.432 250.076C183.148 248.857 181.246 247.795 179.727 246.887C178.208 245.98 176.62 244.661 174.961 242.93C173.303 241.199 172.29 239.374 171.921 237.454C171.552 235.534 171.812 233.727 172.7 232.034C173.589 230.341 174.755 229.047 176.198 228.153C177.64 227.258 179.227 226.426 180.958 225.656C182.689 224.886 184.504 224.143 186.402 223.429C188.301 222.715 190.26 222.038 192.279 221.398C194.299 220.759 196.836 220.043 199.89 219.249C202.944 218.456 205.375 217.862 207.184 217.467C208.993 217.072 210.899 216.662 212.904 216.236C214.908 215.81 217.031 215.34 219.275 214.826C221.518 214.312 223.832 213.761 226.217 213.172C228.601 212.583 230.986 211.99 233.372 211.393C235.758 210.795 238.197 210.165 240.689 209.5C243.181 208.836 245.713 208.142 248.285 207.416C250.858 206.69 253.397 205.969 255.905 205.252C258.412 204.535 260.868 203.835 263.274 203.154C265.68 202.473 267.966 201.844 270.133 201.267C272.299 200.691 275.018 200.046 278.287 199.332C281.557 198.619 284.388 198.085 286.781 197.731C289.173 197.377 291.521 197.118 293.823 196.953C296.126 196.789 298.551 196.774 301.1 196.908C303.649 197.043 306.392 197.341 309.33 197.804C312.267 198.266 314.595 198.673 316.313 199.023C318.031 199.374 320.268 199.918 323.027 200.657C325.785 201.395 328.237 202.221 330.382 203.136C332.527 204.051 334.045 205.761 334.937 208.266C335.828 210.771 335.663 213.048 334.441 215.096C333.218 217.145 331.704 218.631 329.899 219.555C328.093 220.479 326.364 221.123 324.711 221.485C323.058 221.848 321.336 222.312 319.545 222.878C317.754 223.443 315.942 223.953 314.109 224.406C312.276 224.86 310.409 225.175 308.507 225.353C306.606 225.53 304.768 225.685 302.994 225.819C301.22 225.952 299.468 226.075 297.738 226.187C296.008 226.3 294.281 226.418 292.556 226.542C290.832 226.666 288.939 226.827 286.877 227.025C284.816 227.223 282.824 227.44 280.9 227.677C278.977 227.914 276.881 228.16 274.612 228.417C272.343 228.673 269.895 228.877 267.269 229.03C264.643 229.183 262.033 229.233 259.438 229.182C256.843 229.131 254.11 228.964 251.241 228.682C248.371 228.399 246.091 228.165 244.401 227.978C242.712 227.792 241.003 227.622 239.275 227.469C237.548 227.315 235.797 227.179 234.024 227.06C232.25 226.94 230.459 226.82 228.648 226.699C226.838 226.579 225.053 226.453 223.294 226.322C221.534 226.192 219.006 225.969 215.71 225.654C212.413 225.34 209.376 224.986 206.598 224.593C203.82 224.2 201.385 223.757 199.294 223.263C197.203 222.77 194.964 222.105 192.577 221.27C190.19 220.434 188.101 219.457 186.31 218.339C184.518 217.221 182.986 215.997 181.712 214.668C180.438 213.339 179.538 211.827 179.013 210.131C178.489 208.435 178.637 206.664 179.458 204.818C180.279 202.971 181.533 201.501 183.22 200.409C184.907 199.316 186.593 198.446 188.277 197.799C189.962 197.152 191.606 196.565 193.208 196.036C194.811 195.508 196.675 194.921 198.801 194.275C200.927 193.63 203.279 192.968 205.858 192.29C208.436 191.612 211.255 191.004 214.315 190.464C217.374 189.925 219.828 189.51 221.677 189.219C223.525 188.928 225.519 188.602 227.659 188.241C229.798 187.88 232.08 187.481 234.503 187.044C236.927 186.606 239.444 186.153 242.055 185.685C244.666 185.216 247.284 184.768 249.907 184.342C252.531 183.915 255.128 183.508 257.699 183.121C260.27 182.733 262.771 182.355 265.204 181.986C267.636 181.617 270.017 181.228 272.348 180.819C274.679 180.41 276.878 179.995 278.945 179.574C281.011 179.153 282.964 178.723 284.803 178.285C286.642 177.846 288.407 177.4 290.1 176.947C291.793 176.493 293.469 176.006 295.127 175.486C296.786 174.965 298.499 174.402 300.265 173.797C302.032 173.192 303.867 172.584 305.77 171.974C307.674 171.365 309.585 170.83 311.504 170.372C313.423 169.913 315.979 169.599 319.172 169.431C322.365 169.263 325.475 169.409 328.5 169.869C331.526 170.329 333.911 170.768 335.657 171.186C337.403 171.604 339.247 172.066 341.19 172.572C343.132 173.078 344.965 173.592 346.687 174.115C348.41 174.638 350.35 175.392 352.51 176.378C354.669 177.363 355.748 177.855 355.748 177.855C357.275 178.57 358.455 179.858 359.031 181.439C359.607 183.02 359.532 184.764 358.821 186.29C358.111 187.816 356.823 188.998 355.241 189.578C353.658 190.158 351.909 190.089 350.378 189.386Z" />
<path id="line" d="M309.738 319.461C309.738 319.461 310.644 319.322 312.456 319.045C314.267 318.768 316.112 318.411 317.991 317.973C319.869 317.536 321.564 316.961 323.075 316.249C324.586 315.537 326.309 314.713 328.244 313.776C330.178 312.839 331.404 313.357 331.922 315.33C332.439 317.304 331.796 318.414 329.993 318.659C328.189 318.905 326.451 319.017 324.778 318.996C323.106 318.975 321.304 318.945 319.374 318.908C317.444 318.87 315.549 318.849 313.691 318.845C311.833 318.84 310.024 318.88 308.265 318.964C306.506 319.047 304.773 319.195 303.066 319.407C301.359 319.619 299.611 319.886 297.823 320.208C296.034 320.531 294.189 320.884 292.288 321.269C290.387 321.653 288.548 322.045 286.771 322.444C284.994 322.843 283.235 323.243 281.494 323.644C279.753 324.046 277.975 324.44 276.159 324.828C274.342 325.216 272.419 325.587 270.387 325.94C268.356 326.294 266.159 326.613 263.796 326.898C261.433 327.183 259.059 327.439 256.672 327.668C254.286 327.896 251.974 328.124 249.737 328.354C247.5 328.583 245.288 328.818 243.099 329.06C240.91 329.302 238.82 329.569 236.828 329.861C234.836 330.152 232.933 330.469 231.117 330.81C229.302 331.151 227.553 331.492 225.871 331.831C224.188 332.17 222.059 332.646 219.483 333.257C216.907 333.869 214.712 334.432 212.898 334.946C211.084 335.46 209.281 335.938 207.489 336.379C205.697 336.821 203.974 337.19 202.32 337.486C200.666 337.783 198.909 338.075 197.048 338.363C195.187 338.651 193.284 338.902 191.339 339.118C189.393 339.333 187.571 339.564 185.871 339.81C184.17 340.057 182.558 340.566 181.034 341.336C179.51 342.107 179.136 343.226 179.911 344.693C180.686 346.161 182.397 347.053 185.044 347.37C187.691 347.688 189.961 348.013 191.853 348.345C193.745 348.678 195.763 349.061 197.906 349.494C200.05 349.927 202.289 350.363 204.622 350.802C206.955 351.241 209.368 351.66 211.861 352.059C214.354 352.458 216.771 352.783 219.113 353.035C221.456 353.287 223.728 353.479 225.93 353.612C228.132 353.745 230.315 353.85 232.478 353.928C234.641 354.005 236.777 354.073 238.886 354.132C240.995 354.19 243.162 354.269 245.386 354.367C247.61 354.466 249.879 354.584 252.193 354.72C254.508 354.857 256.822 354.977 259.136 355.081C261.449 355.185 263.705 355.246 265.902 355.263C268.1 355.281 270.155 355.249 272.068 355.169C273.982 355.088 275.764 354.98 277.415 354.847C279.067 354.713 281.301 354.468 284.118 354.113C286.935 353.757 289.823 353.333 292.781 352.842C295.74 352.351 298.602 351.806 301.368 351.208C304.135 350.61 306.799 350.004 309.362 349.39C311.924 348.777 314.411 348.227 316.822 347.741C319.234 347.256 321.422 346.737 323.388 346.185C325.354 345.632 327.294 344.781 329.209 343.631C331.123 342.481 330.738 342.094 328.052 342.47C325.367 342.845 323.159 343.072 321.428 343.15C319.696 343.228 317.19 343.343 313.909 343.496C310.628 343.649 308.143 343.765 306.454 343.845C304.766 343.924 303.076 344.028 301.386 344.156C299.697 344.284 297.883 344.452 295.947 344.659C294.011 344.866 291.888 345.107 289.579 345.383C287.271 345.659 284.959 345.949 282.643 346.252C280.328 346.556 278.115 346.858 276.003 347.158C273.891 347.459 271.894 347.749 270.014 348.028C268.133 348.307 266.316 348.563 264.56 348.795C262.805 349.028 261.022 349.237 259.21 349.422C257.398 349.608 255.648 349.788 253.962 349.962C252.276 350.136 249.98 350.485 247.075 351.009C244.171 351.533 241.732 352.023 239.76 352.478C237.788 352.933 235.843 353.407 233.927 353.899C232.01 354.391 230.021 354.861 227.961 355.311C225.901 355.76 223.846 356.145 221.796 356.465C219.747 356.785 217.86 357.148 216.136 357.553C214.412 357.959 212.703 358.449 211.009 359.024C209.316 359.599 207.469 360.266 205.47 361.026C203.471 361.786 201.604 362.53 199.87 363.258C198.136 363.985 196.387 364.716 194.623 365.45C192.859 366.184 191.101 366.824 189.349 367.369C187.597 367.914 185.741 368.372 183.781 368.743C181.821 369.115 180.054 369.552 178.48 370.056C176.906 370.56 175.26 371.265 173.542 372.17C171.825 373.075 170.228 373.979 168.751 374.883C167.275 375.786 165.691 376.551 164.002 377.177C162.312 377.804 160.384 378.329 158.219 378.754C156.053 379.179 154.14 379.505 152.48 379.733C150.82 379.96 150.508 379.268 151.544 377.656C152.581 376.044 154.531 375.133 157.397 374.921C160.262 374.71 163.191 374.855 166.184 375.357C169.178 375.859 171.643 376.234 173.581 376.483C175.518 376.732 177.627 377.018 179.906 377.343C182.186 377.667 184.651 378.032 187.302 378.438C189.953 378.843 192.64 379.211 195.362 379.54C198.084 379.869 200.749 380.158 203.356 380.405C205.963 380.652 208.46 380.855 210.847 381.013C213.233 381.172 215.49 381.3 217.617 381.398C219.744 381.496 221.755 381.58 223.651 381.65C225.546 381.72 227.317 381.776 228.965 381.818C230.612 381.86 232.298 381.901 234.023 381.942C235.748 381.982 237.495 382.028 239.262 382.077C241.03 382.127 242.846 382.194 244.71 382.277C246.574 382.36 248.476 382.452 250.414 382.554C252.353 382.656 254.245 382.747 256.091 382.827C257.936 382.906 259.747 382.977 261.525 383.038C263.302 383.098 265.575 383.124 268.345 383.116C271.114 383.107 273.333 383.1 275.003 383.095C276.672 383.09 278.596 383.104 280.773 383.136C282.95 383.169 285.152 383.19 287.379 383.199C289.606 383.208 291.727 383.193 293.743 383.155C295.759 383.117 298.231 382.988 301.16 382.768C304.089 382.548 306.716 382.28 309.04 381.962C311.364 381.645 313.7 381.2 316.049 380.627C318.397 380.054 320.903 379.43 323.566 378.754C326.23 378.079 328.517 377.496 330.43 377.008C332.342 376.519 334.094 376.012 335.685 375.488C337.277 374.964 339.115 374.322 341.2 373.561C343.285 372.8 345.177 372.089 346.875 371.43C348.574 370.771 350.246 370.098 351.89 369.411C353.535 368.725 353.262 368.931 351.069 370.029C348.877 371.128 346.314 371.594 343.38 371.429C340.446 371.264 337.535 371.125 334.645 371.012C331.756 370.9 328.9 370.837 326.076 370.823C323.253 370.81 320.247 370.807 317.059 370.816C313.87 370.825 310.662 370.867 307.435 370.943C304.207 371.019 301.578 371.098 299.548 371.182C297.518 371.265 295.455 371.361 293.359 371.469C291.264 371.578 289.132 371.684 286.964 371.789C284.795 371.895 282.537 372.003 280.189 372.115C277.842 372.227 275.375 372.337 272.79 372.445C270.205 372.554 267.539 372.656 264.792 372.753C262.045 372.851 259.234 372.944 256.359 373.032C253.484 373.121 250.655 373.205 247.874 373.285C245.092 373.364 242.46 373.455 239.976 373.558C237.493 373.66 235.187 373.775 233.058 373.903C230.928 374.03 228.968 374.156 227.178 374.28C225.387 374.404 222.967 374.592 219.918 374.843C216.869 375.095 213.964 375.39 211.203 375.73C208.442 376.069 205.681 376.46 202.919 376.901C200.158 377.342 197.817 377.777 195.896 378.205C193.975 378.634 191.965 379.106 189.867 379.623C187.769 380.139 185.764 380.574 183.851 380.927C181.939 381.28 179.971 381.644 177.948 382.019C175.925 382.394 173.809 382.866 171.601 383.437C169.393 384.008 167.357 384.506 165.492 384.932C163.628 385.358 161.818 385.75 160.06 386.107C158.303 386.465 156.561 386.86 154.834 387.295C153.107 387.729 151.392 388.427 149.688 389.387C147.984 390.348 146.41 391.346 144.966 392.382C143.523 393.417 142.643 392.855 142.326 390.697C142.009 388.538 142.987 387.84 145.258 388.601C147.529 389.363 149.828 389.916 152.155 390.261C154.481 390.606 156.512 390.852 158.248 391.001C159.983 391.149 161.822 391.306 163.764 391.472C165.706 391.638 167.542 391.777 169.273 391.891C171.004 392.005 173.114 392.103 175.604 392.184C178.095 392.265 180.649 392.412 183.267 392.624C185.885 392.835 188.078 393.055 189.845 393.282C191.612 393.508 193.519 393.741 195.565 393.979C197.611 394.216 199.608 394.416 201.556 394.578C203.504 394.74 205.353 394.865 207.101 394.954C208.85 395.044 211.333 395.108 214.551 395.146C217.768 395.185 220.466 395.218 222.645 395.246C224.824 395.273 227.268 395.326 229.977 395.405C232.686 395.484 235.576 395.534 238.648 395.556C241.72 395.578 244.74 395.579 247.71 395.559C250.68 395.539 253.43 395.5 255.96 395.442C258.491 395.384 260.884 395.306 263.141 395.206C265.398 395.107 267.588 395.005 269.71 394.901C271.832 394.797 274.07 394.712 276.424 394.644C278.778 394.577 281.345 394.532 284.126 394.509C286.908 394.486 289.668 394.454 292.408 394.412C295.147 394.37 297.758 394.312 300.241 394.239C302.723 394.165 305.081 394.084 307.315 393.994C309.548 393.904 311.685 393.816 313.726 393.728C315.767 393.641 317.728 393.543 319.609 393.434C321.491 393.325 323.3 393.195 325.036 393.044C326.772 392.892 328.514 392.743 330.262 392.596C332.009 392.449 334.529 392.25 337.819 391.999C341.11 391.748 343.614 391.581 345.329 391.498C347.045 391.416 349.402 391.276 352.4 391.08C355.398 390.884 357.871 390.65 359.818 390.379C361.766 390.108 363.749 389.757 365.768 389.325C367.787 388.894 369.621 388.259 371.27 387.422C372.919 386.585 372.889 385.904 371.18 385.38C369.471 384.856 367.618 384.507 365.621 384.333C363.624 384.158 361.753 384.016 360.008 383.905C358.263 383.794 356.386 383.717 354.379 383.673C352.371 383.629 349.726 383.659 346.444 383.764C343.161 383.869 340.349 383.98 338.006 384.096C335.664 384.212 333.144 384.349 330.448 384.507C327.751 384.666 324.856 384.884 321.762 385.163C318.669 385.441 315.422 385.755 312.022 386.104C308.622 386.454 305.271 386.8 301.969 387.143C298.668 387.486 295.304 387.866 291.878 388.285C288.451 388.703 285.007 389.171 281.544 389.688C278.081 390.205 274.672 390.751 271.318 391.324C267.964 391.897 264.705 392.466 261.542 393.032C258.379 393.597 255.374 394.115 252.529 394.586C249.683 395.056 247.009 395.497 244.507 395.908C242.005 396.318 239.729 396.708 237.68 397.077C235.631 397.445 233.701 397.784 231.892 398.092C230.082 398.401 228.319 398.68 226.602 398.93C224.886 399.179 223.189 399.408 221.512 399.617C219.835 399.825 218.152 400.033 216.464 400.241C214.776 400.45 213.094 400.665 211.416 400.889C209.738 401.112 208.071 401.331 206.413 401.545C204.754 401.759 202.485 402.044 199.606 402.401C196.726 402.757 194.041 403.065 191.551 403.323C189.061 403.582 186.489 403.787 183.834 403.94C181.18 404.093 178.519 404.209 175.853 404.29C173.187 404.371 170.809 404.455 168.721 404.542C166.632 404.629 164.612 404.764 162.659 404.945C160.706 405.127 158.826 405.407 157.018 405.786C155.21 406.165 153.36 406.574 151.468 407.013C149.577 407.452 148.16 408.469 147.217 410.064C146.275 411.66 145.363 411.727 144.481 410.265C143.599 408.803 144.434 408.408 146.986 409.078C149.538 409.747 152.011 410.278 154.404 410.67C156.798 411.062 159.101 411.426 161.316 411.76C163.53 412.095 166.285 412.487 169.58 412.937C172.876 413.386 176.291 413.808 179.823 414.202C183.356 414.596 186.66 414.936 189.734 415.22C192.808 415.505 195.702 415.75 198.416 415.955C201.13 416.16 203.584 416.289 205.779 416.342C207.974 416.395 210.071 416.427 212.07 416.439C214.069 416.45 216.155 416.495 218.328 416.574C220.501 416.653 222.732 416.766 225.02 416.915C227.308 417.063 229.596 417.202 231.884 417.331C234.171 417.461 236.428 417.544 238.653 417.581C240.878 417.619 243.039 417.613 245.136 417.566C247.233 417.518 249.415 417.482 251.682 417.458C253.948 417.434 256.424 417.462 259.11 417.542C261.796 417.622 264.726 417.732 267.901 417.873C271.076 418.014 274.273 418.17 277.491 418.341C280.71 418.511 283.701 418.662 286.465 418.794C289.228 418.927 291.696 418.986 293.867 418.971C296.038 418.957 298.638 418.791 301.669 418.474C304.699 418.157 307.897 417.665 311.263 416.998C314.63 416.331 317.278 415.763 319.206 415.293C321.134 414.824 323.115 414.331 325.148 413.813C327.181 413.295 329.101 412.787 330.909 412.29C332.716 411.793 335.069 411.09 337.967 410.18C340.866 409.27 343.312 408.462 345.307 407.756C347.301 407.051 349.097 406.38 350.694 405.744C352.29 405.108 353.925 404.461 355.598 403.803C357.27 403.145 358.968 402.471 360.69 401.78C362.412 401.09 364.124 400.358 365.827 399.585C367.53 398.811 369.241 397.999 370.959 397.148C372.677 396.297 374.364 395.388 376.021 394.421C377.678 393.454 378.695 391.889 379.072 389.724C379.449 387.559 379.638 386.478 379.638 386.478C380.169 384.889 381.311 383.575 382.812 382.826C384.314 382.077 386.053 381.953 387.646 382.482C389.239 383.012 390.556 384.151 391.307 385.649C392.058 387.147 392.182 388.882 391.651 390.471C391.651 390.472 391.257 391.723 390.469 394.223C389.681 396.724 388.796 398.637 387.813 399.962C386.831 401.288 385.457 402.471 383.692 403.511C381.928 404.55 380.184 405.479 378.462 406.296C376.739 407.113 374.906 407.944 372.961 408.788C371.016 409.632 369.109 410.399 367.239 411.089C365.369 411.78 363.551 412.402 361.784 412.958C360.018 413.514 358.255 414.061 356.496 414.6C354.736 415.139 352.925 415.647 351.06 416.125C349.196 416.603 347.002 417.151 344.477 417.771C341.951 418.391 339.876 418.902 338.25 419.303C336.623 419.705 334.898 420.131 333.074 420.582C331.249 421.032 329.3 421.53 327.225 422.075C325.151 422.62 323.089 423.139 321.039 423.631C318.989 424.123 316.996 424.544 315.06 424.893C313.123 425.242 310.471 425.525 307.105 425.744C303.738 425.962 301.21 426.037 299.522 425.968C297.833 425.899 295.886 425.816 293.68 425.718C291.474 425.62 288.984 425.536 286.21 425.466C283.436 425.397 280.454 425.32 277.265 425.238C274.076 425.155 270.924 425.102 267.809 425.08C264.695 425.057 261.814 425.086 259.165 425.166C256.517 425.246 254.06 425.306 251.795 425.344C249.529 425.383 247.311 425.41 245.139 425.426C242.968 425.441 240.721 425.435 238.4 425.408C236.079 425.38 233.762 425.316 231.448 425.216C229.135 425.115 226.859 425.003 224.621 424.881C222.382 424.758 220.199 424.651 218.072 424.557C215.946 424.464 213.876 424.375 211.864 424.292C209.851 424.208 207.735 424.13 205.514 424.056C203.294 423.983 200.808 423.94 198.055 423.929C195.303 423.918 192.365 423.9 189.24 423.874C186.115 423.849 182.763 423.809 179.183 423.756C175.604 423.702 172.139 423.668 168.79 423.652C165.44 423.636 162.581 423.62 160.212 423.604C157.843 423.587 155.204 423.411 152.297 423.075C149.389 422.74 146.737 422.305 144.342 421.771C141.946 421.237 139.75 420.48 137.755 419.502C135.759 418.523 134.462 416.755 133.862 414.198C133.263 411.64 133.126 409.435 133.452 407.583C133.777 405.731 134.423 403.94 135.388 402.21C136.354 400.481 137.728 399.084 139.511 398.021C141.294 396.958 143.119 396.255 144.987 395.912C146.855 395.57 148.746 395.241 150.66 394.925C152.573 394.609 154.403 394.351 156.148 394.149C157.893 393.948 159.869 393.83 162.076 393.796C164.283 393.762 166.443 393.754 168.557 393.774C170.671 393.793 173.029 393.802 175.631 393.801C178.234 393.799 180.811 393.778 183.365 393.737C185.918 393.696 188.403 393.633 190.82 393.549C193.237 393.465 195.864 393.335 198.702 393.16C201.54 392.985 203.79 392.827 205.452 392.687C207.114 392.547 208.808 392.403 210.535 392.255C212.261 392.107 213.986 391.977 215.71 391.865C217.434 391.753 219.12 391.659 220.766 391.585C222.413 391.51 224.076 391.428 225.755 391.338C227.434 391.248 229.167 391.136 230.953 391.003C232.739 390.87 234.65 390.698 236.686 390.488C238.723 390.278 240.98 389.982 243.46 389.6C245.939 389.218 248.584 388.778 251.394 388.278C254.204 387.779 257.191 387.222 260.357 386.606C263.522 385.991 266.797 385.361 270.18 384.717C273.563 384.072 277.004 383.443 280.502 382.828C284 382.214 287.468 381.635 290.904 381.092C294.341 380.548 297.69 380.023 300.952 379.516C304.213 379.01 307.526 378.471 310.889 377.901C314.253 377.33 317.472 376.756 320.547 376.179C323.622 375.602 326.502 375.04 329.188 374.494C331.873 373.948 334.419 373.448 336.824 372.993C339.229 372.537 341.433 372.17 343.434 371.89C345.436 371.611 347.888 371.393 350.791 371.237C353.694 371.082 356.083 371.044 357.958 371.125C359.833 371.206 361.751 371.312 363.712 371.442C365.673 371.573 367.984 371.771 370.645 372.035C373.306 372.3 375.645 372.907 377.66 373.856C379.676 374.806 381.186 375.994 382.19 377.422C383.195 378.85 383.954 380.351 384.465 381.926C384.977 383.501 385.141 385.387 384.955 387.583C384.77 389.78 384.054 391.623 382.808 393.111C381.562 394.6 380.142 395.804 378.548 396.724C376.954 397.643 375.23 398.31 373.376 398.724C371.522 399.138 369.462 399.464 367.195 399.703C364.928 399.942 362.727 400.11 360.592 400.206C358.457 400.302 355.858 400.379 352.793 400.435C349.728 400.492 347.356 400.532 345.676 400.556C343.996 400.58 341.523 400.626 338.257 400.693C334.992 400.76 332.477 400.818 330.714 400.867C328.95 400.916 327.164 400.958 325.354 400.994C323.544 401.03 321.682 401.044 319.768 401.034C317.855 401.025 315.885 401.007 313.86 400.982C311.835 400.956 309.714 400.947 307.496 400.955C305.279 400.963 302.932 401.005 300.457 401.081C297.981 401.157 295.374 401.264 292.634 401.401C289.894 401.539 287.138 401.684 284.364 401.838C281.591 401.992 279.027 402.112 276.672 402.199C274.318 402.285 272.082 402.346 269.966 402.381C267.85 402.416 265.666 402.464 263.413 402.524C261.16 402.585 258.767 402.683 256.235 402.82C253.704 402.956 250.948 403.122 247.97 403.315C244.991 403.509 241.966 403.712 238.895 403.923C235.823 404.135 232.931 404.356 230.218 404.586C227.504 404.816 225.021 404.999 222.766 405.135C220.512 405.271 217.705 405.32 214.346 405.284C210.987 405.248 208.411 405.202 206.618 405.148C204.826 405.093 202.923 405.041 200.909 404.99C198.894 404.939 196.809 404.886 194.653 404.83C192.497 404.774 190.52 404.687 188.723 404.569C186.926 404.451 184.855 404.299 182.51 404.113C180.164 403.926 177.742 403.795 175.242 403.72C172.742 403.644 170.628 403.607 168.899 403.61C167.17 403.613 165.33 403.636 163.379 403.68C161.428 403.723 159.519 403.763 157.654 403.798C155.788 403.834 153.6 403.744 151.089 403.527C148.578 403.31 146.465 402.972 144.751 402.514C143.037 402.056 140.942 401.337 138.466 400.356C135.991 399.376 134.052 398.192 132.651 396.807C131.25 395.421 130.517 393.615 130.451 391.389C130.386 389.163 130.903 387.363 132.004 385.99C133.104 384.617 134.331 383.455 135.686 382.503C137.04 381.551 138.484 380.556 140.016 379.519C141.549 378.482 143.142 377.612 144.795 376.911C146.449 376.209 148.185 375.637 150.002 375.195C151.82 374.753 153.675 374.369 155.568 374.043C157.461 373.717 159.343 373.404 161.213 373.106C163.084 372.808 164.851 372.49 166.513 372.153C168.176 371.815 169.959 371.476 171.862 371.135C173.766 370.795 175.539 370.546 177.183 370.391C178.827 370.235 180.501 370.079 182.206 369.923C183.911 369.766 185.822 369.538 187.938 369.237C190.055 368.936 192.159 368.649 194.25 368.376C196.341 368.103 198.855 367.811 201.791 367.502C204.728 367.193 207.661 366.976 210.59 366.851C213.519 366.726 216.534 366.681 219.636 366.717C222.737 366.753 225.174 366.787 226.945 366.818C228.716 366.85 230.659 366.852 232.775 366.826C234.891 366.799 237.184 366.73 239.656 366.618C242.127 366.505 244.74 366.354 247.496 366.164C250.253 365.974 253.044 365.762 255.871 365.528C258.697 365.294 261.457 365.029 264.151 364.732C266.845 364.435 269.477 364.119 272.045 363.784C274.613 363.449 277.075 363.137 279.43 362.848C281.785 362.558 284.031 362.299 286.166 362.069C288.302 361.839 290.42 361.599 292.52 361.35C294.62 361.101 296.727 360.852 298.841 360.604C300.955 360.356 303.685 360.137 307.029 359.948C310.374 359.758 313.641 359.597 316.83 359.464C320.019 359.331 323.089 359.228 326.039 359.154C328.99 359.079 331.945 359.038 334.907 359.029C337.868 359.02 340.786 359.016 343.661 359.018C346.537 359.019 349.106 359.018 351.367 359.017C353.629 359.015 355.967 359.197 358.381 359.562C360.796 359.928 362.697 361.059 364.085 362.957C365.472 364.855 366.081 366.621 365.91 368.254C365.739 369.887 365.384 371.484 364.847 373.044C364.31 374.604 363.162 376.102 361.404 377.539C359.647 378.975 357.925 379.997 356.24 380.604C354.555 381.21 352.797 381.843 350.968 382.503C349.138 383.162 347.128 383.828 344.937 384.501C342.746 385.174 340.654 385.743 338.662 386.207C336.67 386.672 334.726 387.085 332.83 387.446C330.934 387.807 328.652 388.29 325.984 388.895C323.317 389.5 320.606 390.068 317.852 390.599C315.097 391.131 312.442 391.476 309.886 391.634C307.33 391.793 304.541 391.898 301.518 391.951C298.495 392.003 295.971 392.058 293.946 392.116C291.921 392.174 289.786 392.255 287.541 392.359C285.296 392.464 283.06 392.563 280.831 392.658C278.603 392.752 276.622 392.795 274.89 392.785C273.157 392.775 270.873 392.689 268.039 392.525C265.205 392.362 262.891 392.233 261.098 392.139C259.305 392.045 257.481 391.945 255.626 391.84C253.77 391.736 251.875 391.632 249.939 391.529C248.003 391.426 246.115 391.318 244.274 391.206C242.433 391.095 240.628 390.985 238.859 390.877C237.09 390.769 235.323 390.654 233.559 390.531C231.796 390.409 230.095 390.269 228.456 390.11C226.818 389.952 225.06 389.792 223.183 389.631C221.307 389.471 219.308 389.322 217.188 389.185C215.068 389.048 212.812 388.929 210.421 388.828C208.03 388.728 205.506 388.658 202.851 388.62C200.196 388.582 197.475 388.541 194.688 388.498C191.902 388.454 189.166 388.418 186.48 388.389C183.794 388.361 181.308 388.319 179.023 388.264C176.737 388.21 174.579 388.152 172.55 388.091C170.521 388.029 168.555 387.942 166.652 387.827C164.75 387.712 162.929 387.541 161.19 387.312C159.451 387.083 157.753 386.79 156.097 386.433C154.441 386.076 152.205 385.405 149.388 384.42C146.57 383.435 144.325 382.116 142.651 380.464C140.977 378.812 140.08 377.148 139.96 375.472C139.841 373.796 140.447 372.129 141.779 370.471C143.111 368.812 144.668 367.752 146.448 367.291C148.229 366.83 150.011 366.485 151.793 366.257C153.576 366.028 155.356 365.73 157.133 365.362C158.911 364.995 160.577 364.382 162.131 363.524C163.686 362.665 165.281 361.809 166.918 360.954C168.554 360.1 170.146 359.368 171.692 358.76C173.238 358.152 175.048 357.598 177.123 357.099C179.197 356.6 181.127 356.212 182.913 355.937C184.698 355.661 186.402 355.269 188.025 354.76C189.647 354.251 191.233 353.682 192.782 353.052C194.331 352.422 196.122 351.701 198.154 350.887C200.186 350.073 202.262 349.281 204.382 348.511C206.502 347.741 208.495 347.099 210.359 346.586C212.224 346.073 214.159 345.689 216.166 345.434C218.172 345.179 220.155 344.95 222.115 344.747C224.075 344.545 226.164 344.289 228.381 343.979C230.598 343.67 232.652 343.391 234.543 343.143C236.434 342.895 238.762 342.557 241.528 342.127C244.294 341.698 246.494 341.384 248.129 341.186C249.765 340.987 251.421 340.822 253.1 340.69C254.778 340.559 256.488 340.418 258.231 340.268C259.973 340.119 261.687 339.956 263.374 339.78C265.06 339.603 266.827 339.387 268.674 339.132C270.52 338.876 272.477 338.572 274.544 338.218C276.612 337.864 278.784 337.453 281.062 336.985C283.34 336.516 285.661 336.019 288.026 335.494C290.39 334.968 292.611 334.523 294.689 334.159C296.767 333.795 298.699 333.508 300.486 333.298C302.272 333.088 304.013 332.907 305.707 332.756C307.401 332.605 309.858 332.381 313.078 332.084C316.298 331.787 318.752 331.542 320.439 331.351C322.127 331.16 323.812 330.956 325.496 330.739C327.18 330.522 329.354 330.272 332.017 329.988C334.681 329.704 337.092 329.801 339.25 330.278C341.408 330.756 343.035 332.1 344.132 334.311C345.228 336.521 345.691 338.497 345.52 340.237C345.349 341.977 344.926 343.61 344.252 345.136C343.579 346.661 342.444 348.141 340.848 349.576C339.253 351.01 337.71 352.155 336.221 353.011C334.732 353.867 332.899 354.673 330.721 355.431C328.544 356.189 326.587 356.718 324.852 357.019C323.116 357.319 321.095 357.645 318.79 357.996C316.484 358.347 314.032 358.773 311.433 359.275C308.834 359.777 306.06 360.284 303.111 360.796C300.162 361.309 297.118 361.756 293.978 362.135C290.839 362.515 287.774 362.777 284.784 362.921C281.795 363.065 279.44 363.151 277.719 363.179C275.998 363.207 274.14 363.228 272.145 363.241C270.151 363.254 268.019 363.257 265.752 363.25C263.484 363.244 261.174 363.217 258.822 363.172C256.469 363.126 254.149 363.067 251.862 362.996C249.574 362.926 247.332 362.862 245.136 362.807C242.94 362.752 240.787 362.703 238.678 362.659C236.569 362.616 234.408 362.579 232.197 362.55C229.986 362.52 227.737 362.482 225.448 362.434C223.16 362.386 220.798 362.326 218.362 362.252C215.925 362.179 213.405 362.104 210.799 362.026C208.193 361.948 205.665 361.847 203.215 361.724C200.765 361.601 198.476 361.461 196.349 361.304C194.222 361.148 191.596 360.967 188.472 360.763C185.348 360.559 182.739 360.325 180.646 360.063C178.553 359.8 176.648 359.371 174.931 358.776C173.214 358.18 171.666 357.427 170.287 356.515C168.908 355.603 167.603 354.203 166.373 352.316C165.143 350.428 164.481 348.577 164.388 346.763C164.295 344.949 164.486 343.247 164.961 341.656C165.437 340.065 166.319 338.358 167.609 336.534C168.9 334.71 170.323 333.203 171.879 332.013C173.436 330.822 175.19 329.927 177.142 329.328C179.094 328.729 180.965 328.329 182.757 328.127C184.548 327.925 186.417 327.777 188.362 327.683C190.308 327.589 192.148 327.487 193.884 327.375C195.62 327.264 197.556 327.118 199.693 326.937C201.83 326.756 203.735 326.54 205.408 326.288C207.082 326.036 208.882 325.745 210.809 325.414C212.735 325.083 215.048 324.71 217.746 324.293C220.444 323.877 222.649 323.535 224.359 323.27C226.07 323.004 227.88 322.72 229.789 322.417C231.697 322.113 233.679 321.821 235.735 321.538C237.79 321.256 239.913 320.974 242.104 320.692C244.295 320.409 246.496 320.123 248.705 319.832C250.914 319.541 253.159 319.22 255.439 318.869C257.718 318.518 259.97 318.131 262.194 317.708C264.417 317.285 266.492 316.871 268.42 316.464C270.347 316.058 272.192 315.653 273.955 315.249C275.719 314.845 277.47 314.432 279.208 314.01C280.947 313.588 282.712 313.156 284.505 312.713C286.297 312.271 288.169 311.803 290.119 311.31C292.069 310.817 294.025 310.345 295.987 309.894C297.95 309.444 299.904 309.052 301.852 308.719C303.799 308.385 305.727 308.117 307.635 307.915C309.544 307.713 311.438 307.542 313.318 307.404C315.197 307.265 317.096 307.12 319.013 306.971C320.931 306.821 323.463 306.66 326.611 306.486C329.759 306.313 332.346 306.324 334.374 306.519C336.401 306.715 338.337 307.575 340.182 309.099C342.027 310.623 343.032 312.227 343.198 313.911C343.365 315.595 342.939 317.281 341.921 318.968C340.903 320.655 339.377 321.994 337.344 322.987C335.31 323.98 333.52 324.835 331.974 325.552C330.428 326.269 328.632 326.975 326.586 327.669C324.541 328.363 322.499 328.926 320.462 329.359C318.425 329.792 316.515 330.221 314.733 330.646C312.95 331.072 312.059 331.284 312.059 331.284C310.487 331.591 308.858 331.263 307.529 330.371C306.2 329.479 305.28 328.098 304.973 326.53C304.665 324.962 304.994 323.336 305.888 322.011C306.781 320.685 308.166 319.768 309.738 319.461ZM384.667 394.715C384.667 394.715 383.98 394.61 382.608 394.399C381.235 394.188 378.963 394.01 375.791 393.863C372.619 393.717 370.104 393.625 368.246 393.589C366.389 393.553 364.534 393.549 362.681 393.576C360.828 393.604 358.962 393.677 357.081 393.795C355.2 393.913 353.202 394.097 351.087 394.345C348.972 394.593 346.55 394.885 343.822 395.22C341.093 395.556 338.019 395.976 334.599 396.479C331.18 396.982 327.607 397.519 323.88 398.091C320.154 398.662 316.379 399.227 312.556 399.786C308.733 400.345 304.833 400.919 300.857 401.509C296.881 402.098 292.903 402.692 288.923 403.29C284.943 403.887 280.965 404.472 276.99 405.042C273.015 405.613 269.001 406.185 264.949 406.76C260.896 407.334 256.916 407.89 253.01 408.429C249.103 408.967 245.236 409.49 241.408 409.997C237.579 410.504 233.836 411.007 230.176 411.508C226.517 412.008 222.277 412.59 217.455 413.254C212.634 413.918 210.223 414.25 210.223 414.25C209.412 414.361 208.591 414.146 207.938 413.653C207.286 413.16 206.856 412.429 206.743 411.62C206.631 410.812 206.844 409.991 207.336 409.339C207.829 408.687 208.561 408.257 209.371 408.142C209.371 408.142 211.781 407.805 216.601 407.13C221.42 406.455 225.663 405.859 229.327 405.342C232.992 404.825 236.731 404.304 240.543 403.778C244.355 403.252 248.207 402.706 252.099 402.14C255.991 401.573 259.956 400.984 263.994 400.371C268.033 399.759 272.026 399.141 275.972 398.519C279.919 397.896 283.875 397.249 287.839 396.577C291.804 395.905 295.762 395.224 299.713 394.533C303.665 393.843 307.523 393.151 311.288 392.459C315.053 391.767 318.774 391.043 322.451 390.287C326.128 389.531 329.653 388.776 333.025 388.022C336.397 387.268 339.451 386.553 342.186 385.875C344.921 385.197 347.444 384.619 349.756 384.141C352.067 383.663 354.24 383.292 356.275 383.027C358.31 382.763 360.302 382.546 362.254 382.375C364.205 382.205 366.149 382.055 368.086 381.927C370.022 381.798 372.724 381.68 376.19 381.571C379.656 381.462 382.262 381.546 384.006 381.821C385.75 382.097 386.622 382.234 386.622 382.234C388.277 382.498 389.76 383.405 390.745 384.757C391.731 386.109 392.139 387.796 391.88 389.447C391.621 391.099 390.717 392.581 389.364 393.568C388.012 394.556 386.323 394.968 384.667 394.715Z" />
<path id="line" d="M210.599 415.878C210.599 415.878 209.307 416.032 206.722 416.339C204.137 416.647 201.604 416.965 199.123 417.292C196.643 417.619 194.214 417.947 191.837 418.274C189.46 418.602 187.132 418.929 184.852 419.254C182.572 419.579 180.42 419.9 178.395 420.215C176.371 420.531 174.509 420.834 172.81 421.126C171.112 421.418 168.977 421.804 166.405 422.285C163.833 422.766 161.688 423.175 159.97 423.511C158.251 423.847 156.349 424.272 154.263 424.787C152.176 425.301 151.954 425.383 153.594 425.031C155.235 424.68 157.117 424.791 159.239 425.365C161.361 425.938 163.834 426.541 166.657 427.175C169.48 427.808 172.254 428.288 174.978 428.614C177.702 428.941 180.245 429.165 182.605 429.287C184.966 429.409 187.93 429.616 191.498 429.908C195.066 430.2 198.044 430.499 200.432 430.805C202.821 431.111 205.239 431.421 207.686 431.736C210.133 432.05 212.505 432.316 214.802 432.534C217.099 432.753 219.351 432.932 221.558 433.073C223.765 433.214 225.912 433.33 227.999 433.419C230.085 433.508 232.24 433.613 234.463 433.733C236.687 433.853 239.013 434.001 241.442 434.177C243.872 434.353 246.227 434.504 248.508 434.63C250.788 434.756 252.953 434.844 255.001 434.892C257.05 434.941 258.989 434.962 260.821 434.956C262.652 434.95 264.394 434.928 266.048 434.888C267.702 434.848 270.164 434.808 273.434 434.768C276.703 434.728 279.196 434.728 280.914 434.767C282.631 434.806 284.327 434.86 286.002 434.928C287.677 434.996 289.9 435.06 292.671 435.119C295.442 435.177 297.946 435.191 300.182 435.158C302.418 435.126 304.773 435.072 307.246 434.997C309.72 434.923 312.292 434.781 314.964 434.572C317.636 434.364 320.133 434.115 322.454 433.827C324.775 433.539 326.922 433.233 328.895 432.909C330.867 432.585 333.239 432.245 336.008 431.889C338.777 431.533 341.197 431.203 343.268 430.9C345.339 430.597 347.226 430.089 348.932 429.376C350.637 428.663 352.231 427.813 353.716 426.825C355.2 425.837 356.805 424.531 358.53 422.907C360.255 421.284 361.767 419.849 363.067 418.605C364.368 417.36 365.637 415.824 366.875 413.995C368.112 412.166 369.403 410.191 370.746 408.068C372.09 405.945 372.762 404.884 372.762 404.884C373.655 403.492 375.067 402.51 376.686 402.156C378.304 401.801 379.998 402.102 381.394 402.992C382.791 403.883 383.776 405.29 384.133 406.904C384.49 408.519 384.19 410.209 383.299 411.603C383.299 411.603 382.648 412.607 381.345 414.615C380.042 416.622 378.803 418.535 377.627 420.351C376.451 422.168 375.156 423.829 373.743 425.334C372.33 426.84 370.912 428.236 369.49 429.524C368.067 430.811 366.493 432.215 364.765 433.736C363.038 435.257 361.218 436.527 359.304 437.545C357.39 438.564 355.416 439.434 353.381 440.156C351.346 440.878 349.473 441.368 347.761 441.625C346.049 441.881 343.894 442.17 341.296 442.49C338.698 442.81 336.21 443.127 333.832 443.439C331.454 443.752 329.185 444.021 327.024 444.246C324.862 444.471 322.404 444.701 319.647 444.936C316.891 445.171 314.129 445.324 311.364 445.396C308.598 445.468 306.004 445.47 303.58 445.4C301.157 445.331 298.7 445.21 296.208 445.038C293.717 444.866 290.917 444.667 287.806 444.441C284.696 444.216 282.313 444.059 280.658 443.972C279.003 443.886 276.558 443.78 273.323 443.657C270.089 443.533 267.627 443.441 265.938 443.379C264.248 443.317 262.47 443.247 260.603 443.168C258.736 443.09 256.76 443.006 254.675 442.917C252.59 442.827 250.404 442.737 248.116 442.645C245.828 442.554 243.477 442.476 241.062 442.412C238.647 442.348 236.331 442.282 234.116 442.213C231.9 442.143 229.738 442.072 227.63 441.997C225.521 441.923 223.335 441.852 221.07 441.785C218.806 441.717 216.5 441.643 214.153 441.561C211.805 441.479 209.409 441.404 206.964 441.335C204.519 441.267 202.119 441.216 199.764 441.182C197.41 441.149 194.459 441.093 190.911 441.013C187.364 440.934 184.342 440.821 181.846 440.675C179.349 440.529 176.563 440.308 173.487 440.011C170.411 439.715 168.038 439.439 166.366 439.185C164.694 438.93 162.515 438.496 159.827 437.881C157.138 437.267 154.768 436.669 152.716 436.088C150.663 435.507 148.582 434.776 146.471 433.897C144.361 433.017 142.495 431.906 140.873 430.566C139.252 429.226 138.217 427.567 137.767 425.59C137.317 423.613 137.613 421.845 138.654 420.285C139.694 418.726 141.049 417.589 142.718 416.874C144.386 416.159 146.123 415.636 147.928 415.305C149.733 414.975 151.54 414.721 153.351 414.542C155.161 414.364 156.946 414.216 158.705 414.099C160.464 413.981 162.638 413.814 165.227 413.596C167.815 413.378 169.961 413.18 171.664 413.001C173.367 412.823 175.227 412.603 177.242 412.343C179.258 412.082 181.396 411.776 183.656 411.425C185.917 411.073 188.217 410.696 190.556 410.292C192.896 409.889 195.282 409.448 197.715 408.968C200.147 408.488 202.632 407.961 205.171 407.385C207.71 406.809 208.979 406.522 208.979 406.522C210.221 406.311 211.496 406.601 212.525 407.326C213.553 408.052 214.251 409.155 214.466 410.394C214.68 411.632 214.393 412.905 213.669 413.933C212.944 414.961 211.84 415.661 210.599 415.878ZM372.524 411.2C372.524 411.2 372.462 411.093 372.336 410.879C372.211 410.664 372.149 410.557 372.149 410.557C371.366 409.095 371.196 407.382 371.676 405.795C372.156 404.208 373.248 402.876 374.711 402.09C376.174 401.304 377.89 401.13 379.482 401.604C381.075 402.078 382.414 403.163 383.206 404.62C383.206 404.62 383.261 404.731 383.371 404.954C383.481 405.176 383.537 405.287 383.537 405.287C384.316 406.743 384.486 408.449 384.007 410.03C383.529 411.61 382.442 412.937 380.985 413.72C379.527 414.502 377.818 414.676 376.232 414.204C374.647 413.732 373.313 412.651 372.524 411.2ZM377.859 413.85C377.859 413.85 377.083 413.876 375.532 413.93C373.981 413.983 373.206 414.01 373.206 414.01C371.538 414.052 369.922 413.433 368.711 412.288C367.5 411.144 366.793 409.568 366.745 407.904C366.697 406.241 367.311 404.626 368.454 403.414C369.596 402.202 371.174 401.491 372.841 401.437C372.841 401.437 373.617 401.418 375.168 401.382C376.72 401.346 377.496 401.328 377.496 401.328C379.158 401.283 380.77 401.899 381.978 403.038C383.186 404.178 383.891 405.75 383.939 407.408C383.988 409.066 383.374 410.676 382.234 411.883C381.094 413.091 379.521 413.798 377.859 413.85Z" />
</svg>
