<svg xmlns="http://www.w3.org/2000/svg" width="438" height="434" viewBox="0 0 438 434" fill="none">
<style>
#bg { fill: #e94560; }
#line { stroke: #16213e; fill: none; }
@media (prefers-color-scheme: light) {
  #bg { fill: #d63150; }
  #line { stroke: #ffffff; }
}
</style>
<rect id="bg" x="13" y="11" width="412" height="412" rx="70"/>
<path id="line" d="M353 233.127C353 316.363 294.156 357.981 224.216 382.119C220.554 383.348 216.576 383.289 212.952 381.953C142.844 357.981 84 316.363 84 233.127V116.596C84 112.181 85.7713 107.947 88.9243 104.825C92.0772 101.703 96.3535 99.9491 100.812 99.9491C134.438 99.9491 176.469 79.9725 205.722 54.6687C209.284 51.6555 213.815 50 218.5 50C223.185 50 227.716 51.6555 231.278 54.6687C260.699 80.1389 302.562 99.9491 336.188 99.9491C340.646 99.9491 344.923 101.703 348.076 104.825C351.229 107.947 353 112.181 353 116.596V233.127Z" stroke-width="14" stroke-linecap="round" stroke-linejoin="round" shape-rendering="crispEdges"/>
<path id="line" d="M330 229.781C330 298.769 281.219 333.263 223.239 353.27C220.203 354.289 216.905 354.24 213.901 353.132C155.781 333.263 107 298.769 107 229.781V133.197C107 129.538 108.468 126.028 111.082 123.441C113.696 120.853 117.241 119.399 120.938 119.399C148.812 119.399 183.656 102.842 207.907 81.8696C210.86 79.3722 214.616 78 218.5 78C222.384 78 226.14 79.3722 229.093 81.8696C253.483 102.98 288.188 119.399 316.062 119.399C319.759 119.399 323.304 120.853 325.918 123.441C328.532 126.028 330 129.538 330 133.197V229.781Z" stroke-width="14" stroke-linecap="round" stroke-linejoin="round" shape-rendering="crispEdges"/>
<path id="line" d="M164.25 217H273.75" stroke-width="18" stroke-linecap="round" stroke-linejoin="round"/>
<path id="line" d="M219 162.75V271.25" stroke-width="18" stroke-linecap="round" stroke-linejoin="round"/>
</svg>
